%TF.GenerationSoftware,KiCad,Pcbnew,(6.0.6)*%
%TF.CreationDate,2022-07-25T23:57:12+01:00*%
%TF.ProjectId,Virpar,56697270-6172-42e6-9b69-6361645f7063,rev?*%
%TF.SameCoordinates,Original*%
%TF.FileFunction,Soldermask,Bot*%
%TF.FilePolarity,Negative*%
%FSLAX46Y46*%
G04 Gerber Fmt 4.6, Leading zero omitted, Abs format (unit mm)*
G04 Created by KiCad (PCBNEW (6.0.6)) date 2022-07-25 23:57:12*
%MOMM*%
%LPD*%
G01*
G04 APERTURE LIST*
G04 Aperture macros list*
%AMRoundRect*
0 Rectangle with rounded corners*
0 $1 Rounding radius*
0 $2 $3 $4 $5 $6 $7 $8 $9 X,Y pos of 4 corners*
0 Add a 4 corners polygon primitive as box body*
4,1,4,$2,$3,$4,$5,$6,$7,$8,$9,$2,$3,0*
0 Add four circle primitives for the rounded corners*
1,1,$1+$1,$2,$3*
1,1,$1+$1,$4,$5*
1,1,$1+$1,$6,$7*
1,1,$1+$1,$8,$9*
0 Add four rect primitives between the rounded corners*
20,1,$1+$1,$2,$3,$4,$5,0*
20,1,$1+$1,$4,$5,$6,$7,0*
20,1,$1+$1,$6,$7,$8,$9,0*
20,1,$1+$1,$8,$9,$2,$3,0*%
G04 Aperture macros list end*
%ADD10R,6.000000X5.200000*%
%ADD11R,6.000000X3.700000*%
%ADD12R,7.500000X3.500000*%
%ADD13R,4.600000X4.600000*%
%ADD14RoundRect,0.875000X-2.625000X-0.875000X2.625000X-0.875000X2.625000X0.875000X-2.625000X0.875000X0*%
%ADD15R,1.524000X1.524000*%
%ADD16C,1.524000*%
%ADD17O,1.700000X3.500000*%
%ADD18C,0.660400*%
%ADD19O,1.117600X1.701800*%
%ADD20O,1.050000X1.250000*%
%ADD21O,1.000000X1.900000*%
%ADD22RoundRect,0.250000X-0.337500X-0.475000X0.337500X-0.475000X0.337500X0.475000X-0.337500X0.475000X0*%
%ADD23RoundRect,0.237500X0.237500X-0.300000X0.237500X0.300000X-0.237500X0.300000X-0.237500X-0.300000X0*%
%ADD24RoundRect,0.237500X0.300000X0.237500X-0.300000X0.237500X-0.300000X-0.237500X0.300000X-0.237500X0*%
%ADD25R,1.220000X0.650000*%
%ADD26RoundRect,0.237500X-0.237500X0.250000X-0.237500X-0.250000X0.237500X-0.250000X0.237500X0.250000X0*%
%ADD27RoundRect,0.250000X-0.475000X0.337500X-0.475000X-0.337500X0.475000X-0.337500X0.475000X0.337500X0*%
G04 APERTURE END LIST*
D10*
%TO.C,3*%
X164912200Y-98744800D03*
%TD*%
D11*
%TO.C,2*%
X162782200Y-81224800D03*
%TD*%
D12*
%TO.C,1*%
X164597200Y-88454800D03*
%TD*%
D13*
%TO.C,U1*%
X155803600Y-92583000D03*
%TD*%
D14*
%TO.C,BAT+*%
X129667000Y-101828600D03*
%TD*%
%TO.C,BAT-*%
X183921400Y-101930200D03*
%TD*%
D15*
%TO.C,J4*%
X175818800Y-81994400D03*
D16*
X178324000Y-82000000D03*
X180324000Y-82000000D03*
X182824000Y-82000000D03*
D17*
X171729400Y-81080000D03*
X186944000Y-81080000D03*
%TD*%
D15*
%TO.C,J3*%
X130606800Y-81991200D03*
D16*
X133112000Y-81996800D03*
X135112000Y-81996800D03*
X137612000Y-81996800D03*
D17*
X126517400Y-81076800D03*
X141732000Y-81076800D03*
%TD*%
D18*
%TO.C,J2*%
X147445792Y-78916399D03*
X151446422Y-78916399D03*
X146645666Y-78916399D03*
X147045792Y-78216398D03*
X147845918Y-78216398D03*
X148245918Y-78916399D03*
X148646044Y-78216398D03*
X149046044Y-78916399D03*
X149846170Y-78916399D03*
X150246170Y-78216398D03*
X150646296Y-78916399D03*
X151046296Y-78216398D03*
X151846422Y-78216398D03*
X152246548Y-78916399D03*
D19*
X145176108Y-77766399D03*
X153716108Y-73036399D03*
X153771600Y-77749400D03*
X145176108Y-73036399D03*
%TD*%
D20*
%TO.C,J1*%
X161340800Y-74450200D03*
D21*
X167386000Y-71450200D03*
D20*
X166166800Y-74450200D03*
D21*
X160020000Y-71450200D03*
%TD*%
D22*
%TO.C,CP19*%
X163478300Y-84658200D03*
X165553300Y-84658200D03*
%TD*%
D23*
%TO.C,C3*%
X159588200Y-88975100D03*
X159588200Y-87250100D03*
%TD*%
D24*
%TO.C,C4*%
X154202300Y-87299800D03*
X152477300Y-87299800D03*
%TD*%
D25*
%TO.C,Q4*%
X161380800Y-76266000D03*
X161380800Y-78166000D03*
X158760800Y-77216000D03*
%TD*%
D26*
%TO.C,R10*%
X157505400Y-85955500D03*
X157505400Y-87780500D03*
%TD*%
D22*
%TO.C,CP18*%
X169548900Y-96151700D03*
X171623900Y-96151700D03*
%TD*%
D25*
%TO.C,Q2*%
X151297000Y-82590600D03*
X151297000Y-84490600D03*
X148677000Y-83540600D03*
%TD*%
D27*
%TO.C,CP15*%
X164820600Y-92320200D03*
X164820600Y-94395200D03*
%TD*%
D22*
%TO.C,CP8*%
X166983500Y-81305400D03*
X169058500Y-81305400D03*
%TD*%
M02*
