%TF.GenerationSoftware,KiCad,Pcbnew,(6.0.6)*%
%TF.CreationDate,2022-07-25T23:57:12+01:00*%
%TF.ProjectId,Virpar,56697270-6172-42e6-9b69-6361645f7063,rev?*%
%TF.SameCoordinates,Original*%
%TF.FileFunction,Legend,Top*%
%TF.FilePolarity,Positive*%
%FSLAX46Y46*%
G04 Gerber Fmt 4.6, Leading zero omitted, Abs format (unit mm)*
G04 Created by KiCad (PCBNEW (6.0.6)) date 2022-07-25 23:57:12*
%MOMM*%
%LPD*%
G01*
G04 APERTURE LIST*
%ADD10C,0.150000*%
%ADD11C,0.120000*%
%ADD12C,0.200000*%
G04 APERTURE END LIST*
D10*
%TO.C,1*%
X165060714Y-88102380D02*
X164489285Y-88102380D01*
X164775000Y-88102380D02*
X164775000Y-87102380D01*
X164679761Y-87245238D01*
X164584523Y-87340476D01*
X164489285Y-87388095D01*
%TO.C,U1*%
X150955980Y-93344904D02*
X151765504Y-93344904D01*
X151860742Y-93297285D01*
X151908361Y-93249666D01*
X151955980Y-93154428D01*
X151955980Y-92963952D01*
X151908361Y-92868714D01*
X151860742Y-92821095D01*
X151765504Y-92773476D01*
X150955980Y-92773476D01*
X151955980Y-91773476D02*
X151955980Y-92344904D01*
X151955980Y-92059190D02*
X150955980Y-92059190D01*
X151098838Y-92154428D01*
X151194076Y-92249666D01*
X151241695Y-92344904D01*
%TO.C,BAT+*%
X128843257Y-98353571D02*
X128986114Y-98401190D01*
X129033733Y-98448809D01*
X129081352Y-98544047D01*
X129081352Y-98686904D01*
X129033733Y-98782142D01*
X128986114Y-98829761D01*
X128890876Y-98877380D01*
X128509923Y-98877380D01*
X128509923Y-97877380D01*
X128843257Y-97877380D01*
X128938495Y-97925000D01*
X128986114Y-97972619D01*
X129033733Y-98067857D01*
X129033733Y-98163095D01*
X128986114Y-98258333D01*
X128938495Y-98305952D01*
X128843257Y-98353571D01*
X128509923Y-98353571D01*
X129462304Y-98591666D02*
X129938495Y-98591666D01*
X129367066Y-98877380D02*
X129700400Y-97877380D01*
X130033733Y-98877380D01*
X130224209Y-97877380D02*
X130795638Y-97877380D01*
X130509923Y-98877380D02*
X130509923Y-97877380D01*
X131128971Y-98496428D02*
X131890876Y-98496428D01*
X131509923Y-98877380D02*
X131509923Y-98115476D01*
%TO.C,BAT-*%
X183326257Y-98759971D02*
X183469114Y-98807590D01*
X183516733Y-98855209D01*
X183564352Y-98950447D01*
X183564352Y-99093304D01*
X183516733Y-99188542D01*
X183469114Y-99236161D01*
X183373876Y-99283780D01*
X182992923Y-99283780D01*
X182992923Y-98283780D01*
X183326257Y-98283780D01*
X183421495Y-98331400D01*
X183469114Y-98379019D01*
X183516733Y-98474257D01*
X183516733Y-98569495D01*
X183469114Y-98664733D01*
X183421495Y-98712352D01*
X183326257Y-98759971D01*
X182992923Y-98759971D01*
X183945304Y-98998066D02*
X184421495Y-98998066D01*
X183850066Y-99283780D02*
X184183400Y-98283780D01*
X184516733Y-99283780D01*
X184707209Y-98283780D02*
X185278638Y-98283780D01*
X184992923Y-99283780D02*
X184992923Y-98283780D01*
X185611971Y-98902828D02*
X186373876Y-98902828D01*
%TO.C,SW1*%
X127529761Y-91833333D02*
X127577380Y-91690476D01*
X127577380Y-91452380D01*
X127529761Y-91357142D01*
X127482142Y-91309523D01*
X127386904Y-91261904D01*
X127291666Y-91261904D01*
X127196428Y-91309523D01*
X127148809Y-91357142D01*
X127101190Y-91452380D01*
X127053571Y-91642857D01*
X127005952Y-91738095D01*
X126958333Y-91785714D01*
X126863095Y-91833333D01*
X126767857Y-91833333D01*
X126672619Y-91785714D01*
X126625000Y-91738095D01*
X126577380Y-91642857D01*
X126577380Y-91404761D01*
X126625000Y-91261904D01*
X126577380Y-90928571D02*
X127577380Y-90690476D01*
X126863095Y-90500000D01*
X127577380Y-90309523D01*
X126577380Y-90071428D01*
X127577380Y-89166666D02*
X127577380Y-89738095D01*
X127577380Y-89452380D02*
X126577380Y-89452380D01*
X126720238Y-89547619D01*
X126815476Y-89642857D01*
X126863095Y-89738095D01*
%TO.C,L1*%
X144740333Y-103601780D02*
X144264142Y-103601780D01*
X144264142Y-102601780D01*
X145597476Y-103601780D02*
X145026047Y-103601780D01*
X145311761Y-103601780D02*
X145311761Y-102601780D01*
X145216523Y-102744638D01*
X145121285Y-102839876D01*
X145026047Y-102887495D01*
%TO.C,J4*%
X185358546Y-83621490D02*
X185358546Y-84335776D01*
X185310927Y-84478633D01*
X185215689Y-84573871D01*
X185072832Y-84621490D01*
X184977594Y-84621490D01*
X186263308Y-83954824D02*
X186263308Y-84621490D01*
X186025213Y-83573871D02*
X185787118Y-84288157D01*
X186406165Y-84288157D01*
%TO.C,J3*%
X140146546Y-83618290D02*
X140146546Y-84332576D01*
X140098927Y-84475433D01*
X140003689Y-84570671D01*
X139860832Y-84618290D01*
X139765594Y-84618290D01*
X140527499Y-83618290D02*
X141146546Y-83618290D01*
X140813213Y-83999243D01*
X140956070Y-83999243D01*
X141051308Y-84046862D01*
X141098927Y-84094481D01*
X141146546Y-84189719D01*
X141146546Y-84427814D01*
X141098927Y-84523052D01*
X141051308Y-84570671D01*
X140956070Y-84618290D01*
X140670356Y-84618290D01*
X140575118Y-84570671D01*
X140527499Y-84523052D01*
%TO.C,J2*%
X153741666Y-81952380D02*
X153741666Y-82666666D01*
X153694047Y-82809523D01*
X153598809Y-82904761D01*
X153455952Y-82952380D01*
X153360714Y-82952380D01*
X154170238Y-82047619D02*
X154217857Y-82000000D01*
X154313095Y-81952380D01*
X154551190Y-81952380D01*
X154646428Y-82000000D01*
X154694047Y-82047619D01*
X154741666Y-82142857D01*
X154741666Y-82238095D01*
X154694047Y-82380952D01*
X154122619Y-82952380D01*
X154741666Y-82952380D01*
X147932142Y-81877380D02*
X147932142Y-82686904D01*
X147979761Y-82782142D01*
X148027380Y-82829761D01*
X148122619Y-82877380D01*
X148313095Y-82877380D01*
X148408333Y-82829761D01*
X148455952Y-82782142D01*
X148503571Y-82686904D01*
X148503571Y-81877380D01*
X148932142Y-82829761D02*
X149075000Y-82877380D01*
X149313095Y-82877380D01*
X149408333Y-82829761D01*
X149455952Y-82782142D01*
X149503571Y-82686904D01*
X149503571Y-82591666D01*
X149455952Y-82496428D01*
X149408333Y-82448809D01*
X149313095Y-82401190D01*
X149122619Y-82353571D01*
X149027380Y-82305952D01*
X148979761Y-82258333D01*
X148932142Y-82163095D01*
X148932142Y-82067857D01*
X148979761Y-81972619D01*
X149027380Y-81925000D01*
X149122619Y-81877380D01*
X149360714Y-81877380D01*
X149503571Y-81925000D01*
X150265476Y-82353571D02*
X150408333Y-82401190D01*
X150455952Y-82448809D01*
X150503571Y-82544047D01*
X150503571Y-82686904D01*
X150455952Y-82782142D01*
X150408333Y-82829761D01*
X150313095Y-82877380D01*
X149932142Y-82877380D01*
X149932142Y-81877380D01*
X150265476Y-81877380D01*
X150360714Y-81925000D01*
X150408333Y-81972619D01*
X150455952Y-82067857D01*
X150455952Y-82163095D01*
X150408333Y-82258333D01*
X150360714Y-82305952D01*
X150265476Y-82353571D01*
X149932142Y-82353571D01*
X150694047Y-82972619D02*
X151455952Y-82972619D01*
X152265476Y-82782142D02*
X152217857Y-82829761D01*
X152075000Y-82877380D01*
X151979761Y-82877380D01*
X151836904Y-82829761D01*
X151741666Y-82734523D01*
X151694047Y-82639285D01*
X151646428Y-82448809D01*
X151646428Y-82305952D01*
X151694047Y-82115476D01*
X151741666Y-82020238D01*
X151836904Y-81925000D01*
X151979761Y-81877380D01*
X152075000Y-81877380D01*
X152217857Y-81925000D01*
X152265476Y-81972619D01*
%TO.C,J1*%
X163395066Y-75702580D02*
X163395066Y-76416866D01*
X163347447Y-76559723D01*
X163252209Y-76654961D01*
X163109352Y-76702580D01*
X163014114Y-76702580D01*
X164395066Y-76702580D02*
X163823638Y-76702580D01*
X164109352Y-76702580D02*
X164109352Y-75702580D01*
X164014114Y-75845438D01*
X163918876Y-75940676D01*
X163823638Y-75988295D01*
%TO.C,R1*%
X156119533Y-84348580D02*
X155786200Y-83872390D01*
X155548104Y-84348580D02*
X155548104Y-83348580D01*
X155929057Y-83348580D01*
X156024295Y-83396200D01*
X156071914Y-83443819D01*
X156119533Y-83539057D01*
X156119533Y-83681914D01*
X156071914Y-83777152D01*
X156024295Y-83824771D01*
X155929057Y-83872390D01*
X155548104Y-83872390D01*
X157071914Y-84348580D02*
X156500485Y-84348580D01*
X156786200Y-84348580D02*
X156786200Y-83348580D01*
X156690961Y-83491438D01*
X156595723Y-83586676D01*
X156500485Y-83634295D01*
%TO.C,CP12*%
X175718742Y-101434757D02*
X175766361Y-101482376D01*
X175813980Y-101625233D01*
X175813980Y-101720471D01*
X175766361Y-101863328D01*
X175671123Y-101958566D01*
X175575885Y-102006185D01*
X175385409Y-102053804D01*
X175242552Y-102053804D01*
X175052076Y-102006185D01*
X174956838Y-101958566D01*
X174861600Y-101863328D01*
X174813980Y-101720471D01*
X174813980Y-101625233D01*
X174861600Y-101482376D01*
X174909219Y-101434757D01*
X175813980Y-101006185D02*
X174813980Y-101006185D01*
X174813980Y-100625233D01*
X174861600Y-100529995D01*
X174909219Y-100482376D01*
X175004457Y-100434757D01*
X175147314Y-100434757D01*
X175242552Y-100482376D01*
X175290171Y-100529995D01*
X175337790Y-100625233D01*
X175337790Y-101006185D01*
X175813980Y-99482376D02*
X175813980Y-100053804D01*
X175813980Y-99768090D02*
X174813980Y-99768090D01*
X174956838Y-99863328D01*
X175052076Y-99958566D01*
X175099695Y-100053804D01*
X174909219Y-99101423D02*
X174861600Y-99053804D01*
X174813980Y-98958566D01*
X174813980Y-98720471D01*
X174861600Y-98625233D01*
X174909219Y-98577614D01*
X175004457Y-98529995D01*
X175099695Y-98529995D01*
X175242552Y-98577614D01*
X175813980Y-99149042D01*
X175813980Y-98529995D01*
%TO.C,C2*%
X143333333Y-88677142D02*
X143285714Y-88724761D01*
X143142857Y-88772380D01*
X143047619Y-88772380D01*
X142904761Y-88724761D01*
X142809523Y-88629523D01*
X142761904Y-88534285D01*
X142714285Y-88343809D01*
X142714285Y-88200952D01*
X142761904Y-88010476D01*
X142809523Y-87915238D01*
X142904761Y-87820000D01*
X143047619Y-87772380D01*
X143142857Y-87772380D01*
X143285714Y-87820000D01*
X143333333Y-87867619D01*
X143714285Y-87867619D02*
X143761904Y-87820000D01*
X143857142Y-87772380D01*
X144095238Y-87772380D01*
X144190476Y-87820000D01*
X144238095Y-87867619D01*
X144285714Y-87962857D01*
X144285714Y-88058095D01*
X144238095Y-88200952D01*
X143666666Y-88772380D01*
X144285714Y-88772380D01*
%TO.C,CP13*%
X157457142Y-80982142D02*
X157409523Y-81029761D01*
X157266666Y-81077380D01*
X157171428Y-81077380D01*
X157028571Y-81029761D01*
X156933333Y-80934523D01*
X156885714Y-80839285D01*
X156838095Y-80648809D01*
X156838095Y-80505952D01*
X156885714Y-80315476D01*
X156933333Y-80220238D01*
X157028571Y-80125000D01*
X157171428Y-80077380D01*
X157266666Y-80077380D01*
X157409523Y-80125000D01*
X157457142Y-80172619D01*
X157885714Y-81077380D02*
X157885714Y-80077380D01*
X158266666Y-80077380D01*
X158361904Y-80125000D01*
X158409523Y-80172619D01*
X158457142Y-80267857D01*
X158457142Y-80410714D01*
X158409523Y-80505952D01*
X158361904Y-80553571D01*
X158266666Y-80601190D01*
X157885714Y-80601190D01*
X159409523Y-81077380D02*
X158838095Y-81077380D01*
X159123809Y-81077380D02*
X159123809Y-80077380D01*
X159028571Y-80220238D01*
X158933333Y-80315476D01*
X158838095Y-80363095D01*
X159742857Y-80077380D02*
X160361904Y-80077380D01*
X160028571Y-80458333D01*
X160171428Y-80458333D01*
X160266666Y-80505952D01*
X160314285Y-80553571D01*
X160361904Y-80648809D01*
X160361904Y-80886904D01*
X160314285Y-80982142D01*
X160266666Y-81029761D01*
X160171428Y-81077380D01*
X159885714Y-81077380D01*
X159790476Y-81029761D01*
X159742857Y-80982142D01*
%TO.C,CP10*%
X144107142Y-80467857D02*
X144154761Y-80515476D01*
X144202380Y-80658333D01*
X144202380Y-80753571D01*
X144154761Y-80896428D01*
X144059523Y-80991666D01*
X143964285Y-81039285D01*
X143773809Y-81086904D01*
X143630952Y-81086904D01*
X143440476Y-81039285D01*
X143345238Y-80991666D01*
X143250000Y-80896428D01*
X143202380Y-80753571D01*
X143202380Y-80658333D01*
X143250000Y-80515476D01*
X143297619Y-80467857D01*
X144202380Y-80039285D02*
X143202380Y-80039285D01*
X143202380Y-79658333D01*
X143250000Y-79563095D01*
X143297619Y-79515476D01*
X143392857Y-79467857D01*
X143535714Y-79467857D01*
X143630952Y-79515476D01*
X143678571Y-79563095D01*
X143726190Y-79658333D01*
X143726190Y-80039285D01*
X144202380Y-78515476D02*
X144202380Y-79086904D01*
X144202380Y-78801190D02*
X143202380Y-78801190D01*
X143345238Y-78896428D01*
X143440476Y-78991666D01*
X143488095Y-79086904D01*
X143202380Y-77896428D02*
X143202380Y-77801190D01*
X143250000Y-77705952D01*
X143297619Y-77658333D01*
X143392857Y-77610714D01*
X143583333Y-77563095D01*
X143821428Y-77563095D01*
X144011904Y-77610714D01*
X144107142Y-77658333D01*
X144154761Y-77705952D01*
X144202380Y-77801190D01*
X144202380Y-77896428D01*
X144154761Y-77991666D01*
X144107142Y-78039285D01*
X144011904Y-78086904D01*
X143821428Y-78134523D01*
X143583333Y-78134523D01*
X143392857Y-78086904D01*
X143297619Y-78039285D01*
X143250000Y-77991666D01*
X143202380Y-77896428D01*
%TO.C,CP3*%
X131083133Y-96089742D02*
X131035514Y-96137361D01*
X130892657Y-96184980D01*
X130797419Y-96184980D01*
X130654561Y-96137361D01*
X130559323Y-96042123D01*
X130511704Y-95946885D01*
X130464085Y-95756409D01*
X130464085Y-95613552D01*
X130511704Y-95423076D01*
X130559323Y-95327838D01*
X130654561Y-95232600D01*
X130797419Y-95184980D01*
X130892657Y-95184980D01*
X131035514Y-95232600D01*
X131083133Y-95280219D01*
X131511704Y-96184980D02*
X131511704Y-95184980D01*
X131892657Y-95184980D01*
X131987895Y-95232600D01*
X132035514Y-95280219D01*
X132083133Y-95375457D01*
X132083133Y-95518314D01*
X132035514Y-95613552D01*
X131987895Y-95661171D01*
X131892657Y-95708790D01*
X131511704Y-95708790D01*
X132416466Y-95184980D02*
X133035514Y-95184980D01*
X132702180Y-95565933D01*
X132845038Y-95565933D01*
X132940276Y-95613552D01*
X132987895Y-95661171D01*
X133035514Y-95756409D01*
X133035514Y-95994504D01*
X132987895Y-96089742D01*
X132940276Y-96137361D01*
X132845038Y-96184980D01*
X132559323Y-96184980D01*
X132464085Y-96137361D01*
X132416466Y-96089742D01*
%TO.C,CP16*%
X168085742Y-89786342D02*
X168038123Y-89833961D01*
X167895266Y-89881580D01*
X167800028Y-89881580D01*
X167657171Y-89833961D01*
X167561933Y-89738723D01*
X167514314Y-89643485D01*
X167466695Y-89453009D01*
X167466695Y-89310152D01*
X167514314Y-89119676D01*
X167561933Y-89024438D01*
X167657171Y-88929200D01*
X167800028Y-88881580D01*
X167895266Y-88881580D01*
X168038123Y-88929200D01*
X168085742Y-88976819D01*
X168514314Y-89881580D02*
X168514314Y-88881580D01*
X168895266Y-88881580D01*
X168990504Y-88929200D01*
X169038123Y-88976819D01*
X169085742Y-89072057D01*
X169085742Y-89214914D01*
X169038123Y-89310152D01*
X168990504Y-89357771D01*
X168895266Y-89405390D01*
X168514314Y-89405390D01*
X170038123Y-89881580D02*
X169466695Y-89881580D01*
X169752409Y-89881580D02*
X169752409Y-88881580D01*
X169657171Y-89024438D01*
X169561933Y-89119676D01*
X169466695Y-89167295D01*
X170895266Y-88881580D02*
X170704790Y-88881580D01*
X170609552Y-88929200D01*
X170561933Y-88976819D01*
X170466695Y-89119676D01*
X170419076Y-89310152D01*
X170419076Y-89691104D01*
X170466695Y-89786342D01*
X170514314Y-89833961D01*
X170609552Y-89881580D01*
X170800028Y-89881580D01*
X170895266Y-89833961D01*
X170942885Y-89786342D01*
X170990504Y-89691104D01*
X170990504Y-89453009D01*
X170942885Y-89357771D01*
X170895266Y-89310152D01*
X170800028Y-89262533D01*
X170609552Y-89262533D01*
X170514314Y-89310152D01*
X170466695Y-89357771D01*
X170419076Y-89453009D01*
%TO.C,CP9*%
X180433333Y-86932142D02*
X180385714Y-86979761D01*
X180242857Y-87027380D01*
X180147619Y-87027380D01*
X180004761Y-86979761D01*
X179909523Y-86884523D01*
X179861904Y-86789285D01*
X179814285Y-86598809D01*
X179814285Y-86455952D01*
X179861904Y-86265476D01*
X179909523Y-86170238D01*
X180004761Y-86075000D01*
X180147619Y-86027380D01*
X180242857Y-86027380D01*
X180385714Y-86075000D01*
X180433333Y-86122619D01*
X180861904Y-87027380D02*
X180861904Y-86027380D01*
X181242857Y-86027380D01*
X181338095Y-86075000D01*
X181385714Y-86122619D01*
X181433333Y-86217857D01*
X181433333Y-86360714D01*
X181385714Y-86455952D01*
X181338095Y-86503571D01*
X181242857Y-86551190D01*
X180861904Y-86551190D01*
X181909523Y-87027380D02*
X182100000Y-87027380D01*
X182195238Y-86979761D01*
X182242857Y-86932142D01*
X182338095Y-86789285D01*
X182385714Y-86598809D01*
X182385714Y-86217857D01*
X182338095Y-86122619D01*
X182290476Y-86075000D01*
X182195238Y-86027380D01*
X182004761Y-86027380D01*
X181909523Y-86075000D01*
X181861904Y-86122619D01*
X181814285Y-86217857D01*
X181814285Y-86455952D01*
X181861904Y-86551190D01*
X181909523Y-86598809D01*
X182004761Y-86646428D01*
X182195238Y-86646428D01*
X182290476Y-86598809D01*
X182338095Y-86551190D01*
X182385714Y-86455952D01*
%TO.C,C1*%
X148183333Y-87552142D02*
X148135714Y-87599761D01*
X147992857Y-87647380D01*
X147897619Y-87647380D01*
X147754761Y-87599761D01*
X147659523Y-87504523D01*
X147611904Y-87409285D01*
X147564285Y-87218809D01*
X147564285Y-87075952D01*
X147611904Y-86885476D01*
X147659523Y-86790238D01*
X147754761Y-86695000D01*
X147897619Y-86647380D01*
X147992857Y-86647380D01*
X148135714Y-86695000D01*
X148183333Y-86742619D01*
X149135714Y-87647380D02*
X148564285Y-87647380D01*
X148850000Y-87647380D02*
X148850000Y-86647380D01*
X148754761Y-86790238D01*
X148659523Y-86885476D01*
X148564285Y-86933095D01*
%TO.C,CP17*%
X167102742Y-85520842D02*
X167055123Y-85568461D01*
X166912266Y-85616080D01*
X166817028Y-85616080D01*
X166674171Y-85568461D01*
X166578933Y-85473223D01*
X166531314Y-85377985D01*
X166483695Y-85187509D01*
X166483695Y-85044652D01*
X166531314Y-84854176D01*
X166578933Y-84758938D01*
X166674171Y-84663700D01*
X166817028Y-84616080D01*
X166912266Y-84616080D01*
X167055123Y-84663700D01*
X167102742Y-84711319D01*
X167531314Y-85616080D02*
X167531314Y-84616080D01*
X167912266Y-84616080D01*
X168007504Y-84663700D01*
X168055123Y-84711319D01*
X168102742Y-84806557D01*
X168102742Y-84949414D01*
X168055123Y-85044652D01*
X168007504Y-85092271D01*
X167912266Y-85139890D01*
X167531314Y-85139890D01*
X169055123Y-85616080D02*
X168483695Y-85616080D01*
X168769409Y-85616080D02*
X168769409Y-84616080D01*
X168674171Y-84758938D01*
X168578933Y-84854176D01*
X168483695Y-84901795D01*
X169388457Y-84616080D02*
X170055123Y-84616080D01*
X169626552Y-85616080D01*
%TO.C,CP6*%
X161853942Y-101618966D02*
X161901561Y-101666585D01*
X161949180Y-101809442D01*
X161949180Y-101904680D01*
X161901561Y-102047538D01*
X161806323Y-102142776D01*
X161711085Y-102190395D01*
X161520609Y-102238014D01*
X161377752Y-102238014D01*
X161187276Y-102190395D01*
X161092038Y-102142776D01*
X160996800Y-102047538D01*
X160949180Y-101904680D01*
X160949180Y-101809442D01*
X160996800Y-101666585D01*
X161044419Y-101618966D01*
X161949180Y-101190395D02*
X160949180Y-101190395D01*
X160949180Y-100809442D01*
X160996800Y-100714204D01*
X161044419Y-100666585D01*
X161139657Y-100618966D01*
X161282514Y-100618966D01*
X161377752Y-100666585D01*
X161425371Y-100714204D01*
X161472990Y-100809442D01*
X161472990Y-101190395D01*
X160949180Y-99761823D02*
X160949180Y-99952300D01*
X160996800Y-100047538D01*
X161044419Y-100095157D01*
X161187276Y-100190395D01*
X161377752Y-100238014D01*
X161758704Y-100238014D01*
X161853942Y-100190395D01*
X161901561Y-100142776D01*
X161949180Y-100047538D01*
X161949180Y-99857061D01*
X161901561Y-99761823D01*
X161853942Y-99714204D01*
X161758704Y-99666585D01*
X161520609Y-99666585D01*
X161425371Y-99714204D01*
X161377752Y-99761823D01*
X161330133Y-99857061D01*
X161330133Y-100047538D01*
X161377752Y-100142776D01*
X161425371Y-100190395D01*
X161520609Y-100238014D01*
%TO.C,CP14*%
X128057142Y-96242857D02*
X128104761Y-96290476D01*
X128152380Y-96433333D01*
X128152380Y-96528571D01*
X128104761Y-96671428D01*
X128009523Y-96766666D01*
X127914285Y-96814285D01*
X127723809Y-96861904D01*
X127580952Y-96861904D01*
X127390476Y-96814285D01*
X127295238Y-96766666D01*
X127200000Y-96671428D01*
X127152380Y-96528571D01*
X127152380Y-96433333D01*
X127200000Y-96290476D01*
X127247619Y-96242857D01*
X128152380Y-95814285D02*
X127152380Y-95814285D01*
X127152380Y-95433333D01*
X127200000Y-95338095D01*
X127247619Y-95290476D01*
X127342857Y-95242857D01*
X127485714Y-95242857D01*
X127580952Y-95290476D01*
X127628571Y-95338095D01*
X127676190Y-95433333D01*
X127676190Y-95814285D01*
X128152380Y-94290476D02*
X128152380Y-94861904D01*
X128152380Y-94576190D02*
X127152380Y-94576190D01*
X127295238Y-94671428D01*
X127390476Y-94766666D01*
X127438095Y-94861904D01*
X127485714Y-93433333D02*
X128152380Y-93433333D01*
X127104761Y-93671428D02*
X127819047Y-93909523D01*
X127819047Y-93290476D01*
%TO.C,R12*%
X178020742Y-99512380D02*
X177687409Y-99036190D01*
X177449314Y-99512380D02*
X177449314Y-98512380D01*
X177830266Y-98512380D01*
X177925504Y-98560000D01*
X177973123Y-98607619D01*
X178020742Y-98702857D01*
X178020742Y-98845714D01*
X177973123Y-98940952D01*
X177925504Y-98988571D01*
X177830266Y-99036190D01*
X177449314Y-99036190D01*
X178973123Y-99512380D02*
X178401695Y-99512380D01*
X178687409Y-99512380D02*
X178687409Y-98512380D01*
X178592171Y-98655238D01*
X178496933Y-98750476D01*
X178401695Y-98798095D01*
X179354076Y-98607619D02*
X179401695Y-98560000D01*
X179496933Y-98512380D01*
X179735028Y-98512380D01*
X179830266Y-98560000D01*
X179877885Y-98607619D01*
X179925504Y-98702857D01*
X179925504Y-98798095D01*
X179877885Y-98940952D01*
X179306457Y-99512380D01*
X179925504Y-99512380D01*
%TO.C,CP2*%
X133394533Y-90628742D02*
X133346914Y-90676361D01*
X133204057Y-90723980D01*
X133108819Y-90723980D01*
X132965961Y-90676361D01*
X132870723Y-90581123D01*
X132823104Y-90485885D01*
X132775485Y-90295409D01*
X132775485Y-90152552D01*
X132823104Y-89962076D01*
X132870723Y-89866838D01*
X132965961Y-89771600D01*
X133108819Y-89723980D01*
X133204057Y-89723980D01*
X133346914Y-89771600D01*
X133394533Y-89819219D01*
X133823104Y-90723980D02*
X133823104Y-89723980D01*
X134204057Y-89723980D01*
X134299295Y-89771600D01*
X134346914Y-89819219D01*
X134394533Y-89914457D01*
X134394533Y-90057314D01*
X134346914Y-90152552D01*
X134299295Y-90200171D01*
X134204057Y-90247790D01*
X133823104Y-90247790D01*
X134775485Y-89819219D02*
X134823104Y-89771600D01*
X134918342Y-89723980D01*
X135156438Y-89723980D01*
X135251676Y-89771600D01*
X135299295Y-89819219D01*
X135346914Y-89914457D01*
X135346914Y-90009695D01*
X135299295Y-90152552D01*
X134727866Y-90723980D01*
X135346914Y-90723980D01*
%TO.C,D1*%
X185342304Y-93924380D02*
X185342304Y-92924380D01*
X185580400Y-92924380D01*
X185723257Y-92972000D01*
X185818495Y-93067238D01*
X185866114Y-93162476D01*
X185913733Y-93352952D01*
X185913733Y-93495809D01*
X185866114Y-93686285D01*
X185818495Y-93781523D01*
X185723257Y-93876761D01*
X185580400Y-93924380D01*
X185342304Y-93924380D01*
X186866114Y-93924380D02*
X186294685Y-93924380D01*
X186580400Y-93924380D02*
X186580400Y-92924380D01*
X186485161Y-93067238D01*
X186389923Y-93162476D01*
X186294685Y-93210095D01*
%TO.C,D3*%
X185088304Y-89657180D02*
X185088304Y-88657180D01*
X185326400Y-88657180D01*
X185469257Y-88704800D01*
X185564495Y-88800038D01*
X185612114Y-88895276D01*
X185659733Y-89085752D01*
X185659733Y-89228609D01*
X185612114Y-89419085D01*
X185564495Y-89514323D01*
X185469257Y-89609561D01*
X185326400Y-89657180D01*
X185088304Y-89657180D01*
X185993066Y-88657180D02*
X186612114Y-88657180D01*
X186278780Y-89038133D01*
X186421638Y-89038133D01*
X186516876Y-89085752D01*
X186564495Y-89133371D01*
X186612114Y-89228609D01*
X186612114Y-89466704D01*
X186564495Y-89561942D01*
X186516876Y-89609561D01*
X186421638Y-89657180D01*
X186135923Y-89657180D01*
X186040685Y-89609561D01*
X185993066Y-89561942D01*
%TO.C,CP20*%
X161652142Y-87267857D02*
X161699761Y-87315476D01*
X161747380Y-87458333D01*
X161747380Y-87553571D01*
X161699761Y-87696428D01*
X161604523Y-87791666D01*
X161509285Y-87839285D01*
X161318809Y-87886904D01*
X161175952Y-87886904D01*
X160985476Y-87839285D01*
X160890238Y-87791666D01*
X160795000Y-87696428D01*
X160747380Y-87553571D01*
X160747380Y-87458333D01*
X160795000Y-87315476D01*
X160842619Y-87267857D01*
X161747380Y-86839285D02*
X160747380Y-86839285D01*
X160747380Y-86458333D01*
X160795000Y-86363095D01*
X160842619Y-86315476D01*
X160937857Y-86267857D01*
X161080714Y-86267857D01*
X161175952Y-86315476D01*
X161223571Y-86363095D01*
X161271190Y-86458333D01*
X161271190Y-86839285D01*
X160842619Y-85886904D02*
X160795000Y-85839285D01*
X160747380Y-85744047D01*
X160747380Y-85505952D01*
X160795000Y-85410714D01*
X160842619Y-85363095D01*
X160937857Y-85315476D01*
X161033095Y-85315476D01*
X161175952Y-85363095D01*
X161747380Y-85934523D01*
X161747380Y-85315476D01*
X160747380Y-84696428D02*
X160747380Y-84601190D01*
X160795000Y-84505952D01*
X160842619Y-84458333D01*
X160937857Y-84410714D01*
X161128333Y-84363095D01*
X161366428Y-84363095D01*
X161556904Y-84410714D01*
X161652142Y-84458333D01*
X161699761Y-84505952D01*
X161747380Y-84601190D01*
X161747380Y-84696428D01*
X161699761Y-84791666D01*
X161652142Y-84839285D01*
X161556904Y-84886904D01*
X161366428Y-84934523D01*
X161128333Y-84934523D01*
X160937857Y-84886904D01*
X160842619Y-84839285D01*
X160795000Y-84791666D01*
X160747380Y-84696428D01*
%TO.C,C6*%
X165883333Y-93782142D02*
X165835714Y-93829761D01*
X165692857Y-93877380D01*
X165597619Y-93877380D01*
X165454761Y-93829761D01*
X165359523Y-93734523D01*
X165311904Y-93639285D01*
X165264285Y-93448809D01*
X165264285Y-93305952D01*
X165311904Y-93115476D01*
X165359523Y-93020238D01*
X165454761Y-92925000D01*
X165597619Y-92877380D01*
X165692857Y-92877380D01*
X165835714Y-92925000D01*
X165883333Y-92972619D01*
X166740476Y-92877380D02*
X166550000Y-92877380D01*
X166454761Y-92925000D01*
X166407142Y-92972619D01*
X166311904Y-93115476D01*
X166264285Y-93305952D01*
X166264285Y-93686904D01*
X166311904Y-93782142D01*
X166359523Y-93829761D01*
X166454761Y-93877380D01*
X166645238Y-93877380D01*
X166740476Y-93829761D01*
X166788095Y-93782142D01*
X166835714Y-93686904D01*
X166835714Y-93448809D01*
X166788095Y-93353571D01*
X166740476Y-93305952D01*
X166645238Y-93258333D01*
X166454761Y-93258333D01*
X166359523Y-93305952D01*
X166311904Y-93353571D01*
X166264285Y-93448809D01*
%TO.C,R6*%
X129708333Y-90852380D02*
X129375000Y-90376190D01*
X129136904Y-90852380D02*
X129136904Y-89852380D01*
X129517857Y-89852380D01*
X129613095Y-89900000D01*
X129660714Y-89947619D01*
X129708333Y-90042857D01*
X129708333Y-90185714D01*
X129660714Y-90280952D01*
X129613095Y-90328571D01*
X129517857Y-90376190D01*
X129136904Y-90376190D01*
X130565476Y-89852380D02*
X130375000Y-89852380D01*
X130279761Y-89900000D01*
X130232142Y-89947619D01*
X130136904Y-90090476D01*
X130089285Y-90280952D01*
X130089285Y-90661904D01*
X130136904Y-90757142D01*
X130184523Y-90804761D01*
X130279761Y-90852380D01*
X130470238Y-90852380D01*
X130565476Y-90804761D01*
X130613095Y-90757142D01*
X130660714Y-90661904D01*
X130660714Y-90423809D01*
X130613095Y-90328571D01*
X130565476Y-90280952D01*
X130470238Y-90233333D01*
X130279761Y-90233333D01*
X130184523Y-90280952D01*
X130136904Y-90328571D01*
X130089285Y-90423809D01*
%TO.C,Q3*%
X137496561Y-86018619D02*
X137401323Y-85971000D01*
X137306085Y-85875761D01*
X137163228Y-85732904D01*
X137067990Y-85685285D01*
X136972752Y-85685285D01*
X137020371Y-85923380D02*
X136925133Y-85875761D01*
X136829895Y-85780523D01*
X136782276Y-85590047D01*
X136782276Y-85256714D01*
X136829895Y-85066238D01*
X136925133Y-84971000D01*
X137020371Y-84923380D01*
X137210847Y-84923380D01*
X137306085Y-84971000D01*
X137401323Y-85066238D01*
X137448942Y-85256714D01*
X137448942Y-85590047D01*
X137401323Y-85780523D01*
X137306085Y-85875761D01*
X137210847Y-85923380D01*
X137020371Y-85923380D01*
X137782276Y-84923380D02*
X138401323Y-84923380D01*
X138067990Y-85304333D01*
X138210847Y-85304333D01*
X138306085Y-85351952D01*
X138353704Y-85399571D01*
X138401323Y-85494809D01*
X138401323Y-85732904D01*
X138353704Y-85828142D01*
X138306085Y-85875761D01*
X138210847Y-85923380D01*
X137925133Y-85923380D01*
X137829895Y-85875761D01*
X137782276Y-85828142D01*
%TO.C,CP5*%
X168757142Y-92316666D02*
X168804761Y-92364285D01*
X168852380Y-92507142D01*
X168852380Y-92602380D01*
X168804761Y-92745238D01*
X168709523Y-92840476D01*
X168614285Y-92888095D01*
X168423809Y-92935714D01*
X168280952Y-92935714D01*
X168090476Y-92888095D01*
X167995238Y-92840476D01*
X167900000Y-92745238D01*
X167852380Y-92602380D01*
X167852380Y-92507142D01*
X167900000Y-92364285D01*
X167947619Y-92316666D01*
X168852380Y-91888095D02*
X167852380Y-91888095D01*
X167852380Y-91507142D01*
X167900000Y-91411904D01*
X167947619Y-91364285D01*
X168042857Y-91316666D01*
X168185714Y-91316666D01*
X168280952Y-91364285D01*
X168328571Y-91411904D01*
X168376190Y-91507142D01*
X168376190Y-91888095D01*
X167852380Y-90411904D02*
X167852380Y-90888095D01*
X168328571Y-90935714D01*
X168280952Y-90888095D01*
X168233333Y-90792857D01*
X168233333Y-90554761D01*
X168280952Y-90459523D01*
X168328571Y-90411904D01*
X168423809Y-90364285D01*
X168661904Y-90364285D01*
X168757142Y-90411904D01*
X168804761Y-90459523D01*
X168852380Y-90554761D01*
X168852380Y-90792857D01*
X168804761Y-90888095D01*
X168757142Y-90935714D01*
%TO.C,Q1*%
X176616161Y-89494419D02*
X176520923Y-89446800D01*
X176425685Y-89351561D01*
X176282828Y-89208704D01*
X176187590Y-89161085D01*
X176092352Y-89161085D01*
X176139971Y-89399180D02*
X176044733Y-89351561D01*
X175949495Y-89256323D01*
X175901876Y-89065847D01*
X175901876Y-88732514D01*
X175949495Y-88542038D01*
X176044733Y-88446800D01*
X176139971Y-88399180D01*
X176330447Y-88399180D01*
X176425685Y-88446800D01*
X176520923Y-88542038D01*
X176568542Y-88732514D01*
X176568542Y-89065847D01*
X176520923Y-89256323D01*
X176425685Y-89351561D01*
X176330447Y-89399180D01*
X176139971Y-89399180D01*
X177520923Y-89399180D02*
X176949495Y-89399180D01*
X177235209Y-89399180D02*
X177235209Y-88399180D01*
X177139971Y-88542038D01*
X177044733Y-88637276D01*
X176949495Y-88684895D01*
%TO.C,R5*%
X155519380Y-75401466D02*
X155043190Y-75734800D01*
X155519380Y-75972895D02*
X154519380Y-75972895D01*
X154519380Y-75591942D01*
X154567000Y-75496704D01*
X154614619Y-75449085D01*
X154709857Y-75401466D01*
X154852714Y-75401466D01*
X154947952Y-75449085D01*
X154995571Y-75496704D01*
X155043190Y-75591942D01*
X155043190Y-75972895D01*
X154519380Y-74496704D02*
X154519380Y-74972895D01*
X154995571Y-75020514D01*
X154947952Y-74972895D01*
X154900333Y-74877657D01*
X154900333Y-74639561D01*
X154947952Y-74544323D01*
X154995571Y-74496704D01*
X155090809Y-74449085D01*
X155328904Y-74449085D01*
X155424142Y-74496704D01*
X155471761Y-74544323D01*
X155519380Y-74639561D01*
X155519380Y-74877657D01*
X155471761Y-74972895D01*
X155424142Y-75020514D01*
%TO.C,D2*%
X185139104Y-91765380D02*
X185139104Y-90765380D01*
X185377200Y-90765380D01*
X185520057Y-90813000D01*
X185615295Y-90908238D01*
X185662914Y-91003476D01*
X185710533Y-91193952D01*
X185710533Y-91336809D01*
X185662914Y-91527285D01*
X185615295Y-91622523D01*
X185520057Y-91717761D01*
X185377200Y-91765380D01*
X185139104Y-91765380D01*
X186091485Y-90860619D02*
X186139104Y-90813000D01*
X186234342Y-90765380D01*
X186472438Y-90765380D01*
X186567676Y-90813000D01*
X186615295Y-90860619D01*
X186662914Y-90955857D01*
X186662914Y-91051095D01*
X186615295Y-91193952D01*
X186043866Y-91765380D01*
X186662914Y-91765380D01*
%TO.C,D8*%
X155725904Y-74417180D02*
X155725904Y-73417180D01*
X155964000Y-73417180D01*
X156106857Y-73464800D01*
X156202095Y-73560038D01*
X156249714Y-73655276D01*
X156297333Y-73845752D01*
X156297333Y-73988609D01*
X156249714Y-74179085D01*
X156202095Y-74274323D01*
X156106857Y-74369561D01*
X155964000Y-74417180D01*
X155725904Y-74417180D01*
X156868761Y-73845752D02*
X156773523Y-73798133D01*
X156725904Y-73750514D01*
X156678285Y-73655276D01*
X156678285Y-73607657D01*
X156725904Y-73512419D01*
X156773523Y-73464800D01*
X156868761Y-73417180D01*
X157059238Y-73417180D01*
X157154476Y-73464800D01*
X157202095Y-73512419D01*
X157249714Y-73607657D01*
X157249714Y-73655276D01*
X157202095Y-73750514D01*
X157154476Y-73798133D01*
X157059238Y-73845752D01*
X156868761Y-73845752D01*
X156773523Y-73893371D01*
X156725904Y-73940990D01*
X156678285Y-74036228D01*
X156678285Y-74226704D01*
X156725904Y-74321942D01*
X156773523Y-74369561D01*
X156868761Y-74417180D01*
X157059238Y-74417180D01*
X157154476Y-74369561D01*
X157202095Y-74321942D01*
X157249714Y-74226704D01*
X157249714Y-74036228D01*
X157202095Y-73940990D01*
X157154476Y-73893371D01*
X157059238Y-73845752D01*
%TO.C,CP1*%
X138837942Y-93452866D02*
X138885561Y-93500485D01*
X138933180Y-93643342D01*
X138933180Y-93738580D01*
X138885561Y-93881438D01*
X138790323Y-93976676D01*
X138695085Y-94024295D01*
X138504609Y-94071914D01*
X138361752Y-94071914D01*
X138171276Y-94024295D01*
X138076038Y-93976676D01*
X137980800Y-93881438D01*
X137933180Y-93738580D01*
X137933180Y-93643342D01*
X137980800Y-93500485D01*
X138028419Y-93452866D01*
X138933180Y-93024295D02*
X137933180Y-93024295D01*
X137933180Y-92643342D01*
X137980800Y-92548104D01*
X138028419Y-92500485D01*
X138123657Y-92452866D01*
X138266514Y-92452866D01*
X138361752Y-92500485D01*
X138409371Y-92548104D01*
X138456990Y-92643342D01*
X138456990Y-93024295D01*
X138933180Y-91500485D02*
X138933180Y-92071914D01*
X138933180Y-91786200D02*
X137933180Y-91786200D01*
X138076038Y-91881438D01*
X138171276Y-91976676D01*
X138218895Y-92071914D01*
%TO.C,R8*%
X146433333Y-86377380D02*
X146100000Y-85901190D01*
X145861904Y-86377380D02*
X145861904Y-85377380D01*
X146242857Y-85377380D01*
X146338095Y-85425000D01*
X146385714Y-85472619D01*
X146433333Y-85567857D01*
X146433333Y-85710714D01*
X146385714Y-85805952D01*
X146338095Y-85853571D01*
X146242857Y-85901190D01*
X145861904Y-85901190D01*
X147004761Y-85805952D02*
X146909523Y-85758333D01*
X146861904Y-85710714D01*
X146814285Y-85615476D01*
X146814285Y-85567857D01*
X146861904Y-85472619D01*
X146909523Y-85425000D01*
X147004761Y-85377380D01*
X147195238Y-85377380D01*
X147290476Y-85425000D01*
X147338095Y-85472619D01*
X147385714Y-85567857D01*
X147385714Y-85615476D01*
X147338095Y-85710714D01*
X147290476Y-85758333D01*
X147195238Y-85805952D01*
X147004761Y-85805952D01*
X146909523Y-85853571D01*
X146861904Y-85901190D01*
X146814285Y-85996428D01*
X146814285Y-86186904D01*
X146861904Y-86282142D01*
X146909523Y-86329761D01*
X147004761Y-86377380D01*
X147195238Y-86377380D01*
X147290476Y-86329761D01*
X147338095Y-86282142D01*
X147385714Y-86186904D01*
X147385714Y-85996428D01*
X147338095Y-85901190D01*
X147290476Y-85853571D01*
X147195238Y-85805952D01*
%TO.C,R14*%
X184751742Y-96954580D02*
X184418409Y-96478390D01*
X184180314Y-96954580D02*
X184180314Y-95954580D01*
X184561266Y-95954580D01*
X184656504Y-96002200D01*
X184704123Y-96049819D01*
X184751742Y-96145057D01*
X184751742Y-96287914D01*
X184704123Y-96383152D01*
X184656504Y-96430771D01*
X184561266Y-96478390D01*
X184180314Y-96478390D01*
X185704123Y-96954580D02*
X185132695Y-96954580D01*
X185418409Y-96954580D02*
X185418409Y-95954580D01*
X185323171Y-96097438D01*
X185227933Y-96192676D01*
X185132695Y-96240295D01*
X186561266Y-96287914D02*
X186561266Y-96954580D01*
X186323171Y-95906961D02*
X186085076Y-96621247D01*
X186704123Y-96621247D01*
%TO.C,R2*%
X182613580Y-92548366D02*
X182137390Y-92881700D01*
X182613580Y-93119795D02*
X181613580Y-93119795D01*
X181613580Y-92738842D01*
X181661200Y-92643604D01*
X181708819Y-92595985D01*
X181804057Y-92548366D01*
X181946914Y-92548366D01*
X182042152Y-92595985D01*
X182089771Y-92643604D01*
X182137390Y-92738842D01*
X182137390Y-93119795D01*
X181708819Y-92167414D02*
X181661200Y-92119795D01*
X181613580Y-92024557D01*
X181613580Y-91786461D01*
X181661200Y-91691223D01*
X181708819Y-91643604D01*
X181804057Y-91595985D01*
X181899295Y-91595985D01*
X182042152Y-91643604D01*
X182613580Y-92215033D01*
X182613580Y-91595985D01*
%TO.C,CP4*%
X156084542Y-100666466D02*
X156132161Y-100714085D01*
X156179780Y-100856942D01*
X156179780Y-100952180D01*
X156132161Y-101095038D01*
X156036923Y-101190276D01*
X155941685Y-101237895D01*
X155751209Y-101285514D01*
X155608352Y-101285514D01*
X155417876Y-101237895D01*
X155322638Y-101190276D01*
X155227400Y-101095038D01*
X155179780Y-100952180D01*
X155179780Y-100856942D01*
X155227400Y-100714085D01*
X155275019Y-100666466D01*
X156179780Y-100237895D02*
X155179780Y-100237895D01*
X155179780Y-99856942D01*
X155227400Y-99761704D01*
X155275019Y-99714085D01*
X155370257Y-99666466D01*
X155513114Y-99666466D01*
X155608352Y-99714085D01*
X155655971Y-99761704D01*
X155703590Y-99856942D01*
X155703590Y-100237895D01*
X155513114Y-98809323D02*
X156179780Y-98809323D01*
X155132161Y-99047419D02*
X155846447Y-99285514D01*
X155846447Y-98666466D01*
%TO.C,CP7*%
X128572433Y-87508142D02*
X128524814Y-87555761D01*
X128381957Y-87603380D01*
X128286719Y-87603380D01*
X128143861Y-87555761D01*
X128048623Y-87460523D01*
X128001004Y-87365285D01*
X127953385Y-87174809D01*
X127953385Y-87031952D01*
X128001004Y-86841476D01*
X128048623Y-86746238D01*
X128143861Y-86651000D01*
X128286719Y-86603380D01*
X128381957Y-86603380D01*
X128524814Y-86651000D01*
X128572433Y-86698619D01*
X129001004Y-87603380D02*
X129001004Y-86603380D01*
X129381957Y-86603380D01*
X129477195Y-86651000D01*
X129524814Y-86698619D01*
X129572433Y-86793857D01*
X129572433Y-86936714D01*
X129524814Y-87031952D01*
X129477195Y-87079571D01*
X129381957Y-87127190D01*
X129001004Y-87127190D01*
X129905766Y-86603380D02*
X130572433Y-86603380D01*
X130143861Y-87603380D01*
%TO.C,R7*%
X182392580Y-88582166D02*
X181916390Y-88915500D01*
X182392580Y-89153595D02*
X181392580Y-89153595D01*
X181392580Y-88772642D01*
X181440200Y-88677404D01*
X181487819Y-88629785D01*
X181583057Y-88582166D01*
X181725914Y-88582166D01*
X181821152Y-88629785D01*
X181868771Y-88677404D01*
X181916390Y-88772642D01*
X181916390Y-89153595D01*
X181392580Y-88248833D02*
X181392580Y-87582166D01*
X182392580Y-88010738D01*
%TO.C,D4*%
X185215304Y-87472780D02*
X185215304Y-86472780D01*
X185453400Y-86472780D01*
X185596257Y-86520400D01*
X185691495Y-86615638D01*
X185739114Y-86710876D01*
X185786733Y-86901352D01*
X185786733Y-87044209D01*
X185739114Y-87234685D01*
X185691495Y-87329923D01*
X185596257Y-87425161D01*
X185453400Y-87472780D01*
X185215304Y-87472780D01*
X186643876Y-86806114D02*
X186643876Y-87472780D01*
X186405780Y-86425161D02*
X186167685Y-87139447D01*
X186786733Y-87139447D01*
%TO.C,RNTC1*%
X177295371Y-93417380D02*
X176962038Y-92941190D01*
X176723942Y-93417380D02*
X176723942Y-92417380D01*
X177104895Y-92417380D01*
X177200133Y-92465000D01*
X177247752Y-92512619D01*
X177295371Y-92607857D01*
X177295371Y-92750714D01*
X177247752Y-92845952D01*
X177200133Y-92893571D01*
X177104895Y-92941190D01*
X176723942Y-92941190D01*
X177723942Y-93417380D02*
X177723942Y-92417380D01*
X178295371Y-93417380D01*
X178295371Y-92417380D01*
X178628704Y-92417380D02*
X179200133Y-92417380D01*
X178914419Y-93417380D02*
X178914419Y-92417380D01*
X180104895Y-93322142D02*
X180057276Y-93369761D01*
X179914419Y-93417380D01*
X179819180Y-93417380D01*
X179676323Y-93369761D01*
X179581085Y-93274523D01*
X179533466Y-93179285D01*
X179485847Y-92988809D01*
X179485847Y-92845952D01*
X179533466Y-92655476D01*
X179581085Y-92560238D01*
X179676323Y-92465000D01*
X179819180Y-92417380D01*
X179914419Y-92417380D01*
X180057276Y-92465000D01*
X180104895Y-92512619D01*
X181057276Y-93417380D02*
X180485847Y-93417380D01*
X180771561Y-93417380D02*
X180771561Y-92417380D01*
X180676323Y-92560238D01*
X180581085Y-92655476D01*
X180485847Y-92703095D01*
%TO.C,R9*%
X169211780Y-77476066D02*
X168735590Y-77809400D01*
X169211780Y-78047495D02*
X168211780Y-78047495D01*
X168211780Y-77666542D01*
X168259400Y-77571304D01*
X168307019Y-77523685D01*
X168402257Y-77476066D01*
X168545114Y-77476066D01*
X168640352Y-77523685D01*
X168687971Y-77571304D01*
X168735590Y-77666542D01*
X168735590Y-78047495D01*
X169211780Y-76999876D02*
X169211780Y-76809400D01*
X169164161Y-76714161D01*
X169116542Y-76666542D01*
X168973685Y-76571304D01*
X168783209Y-76523685D01*
X168402257Y-76523685D01*
X168307019Y-76571304D01*
X168259400Y-76618923D01*
X168211780Y-76714161D01*
X168211780Y-76904638D01*
X168259400Y-76999876D01*
X168307019Y-77047495D01*
X168402257Y-77095114D01*
X168640352Y-77095114D01*
X168735590Y-77047495D01*
X168783209Y-76999876D01*
X168830828Y-76904638D01*
X168830828Y-76714161D01*
X168783209Y-76618923D01*
X168735590Y-76571304D01*
X168640352Y-76523685D01*
D11*
%TO.C,U1*%
X152693600Y-95218000D02*
X152693600Y-95693000D01*
X158913600Y-89948000D02*
X158913600Y-89473000D01*
X152693600Y-89473000D02*
X153168600Y-89473000D01*
X158913600Y-95693000D02*
X158438600Y-95693000D01*
X152693600Y-89948000D02*
X152693600Y-89473000D01*
X158913600Y-95218000D02*
X158913600Y-95693000D01*
X158913600Y-89473000D02*
X158438600Y-89473000D01*
D10*
%TO.C,SW1*%
X125891300Y-93195870D02*
X125891300Y-94295870D01*
X122525700Y-86242670D02*
X122854611Y-86241943D01*
X124291300Y-94295870D02*
X125891300Y-94295870D01*
X122525700Y-94292670D02*
X122830264Y-94291159D01*
X125891300Y-88995870D02*
X125891300Y-91545870D01*
X122525700Y-86242670D02*
X122525700Y-94292670D01*
X124291300Y-86245870D02*
X125891300Y-86245870D01*
X125891300Y-86245870D02*
X125891300Y-87345870D01*
D11*
%TO.C,L1*%
X150207000Y-91499400D02*
X150207000Y-94699400D01*
X139607000Y-102099400D02*
X139607000Y-98899400D01*
X139607000Y-91499400D02*
X150207000Y-91499400D01*
X150207000Y-102099400D02*
X139607000Y-102099400D01*
X139607000Y-94699400D02*
X139607000Y-91499400D01*
X150207000Y-98899400D02*
X150207000Y-102099400D01*
D12*
%TO.C,J4*%
X185876813Y-80283811D02*
X185874000Y-83000000D01*
X172774000Y-80236775D02*
X172774000Y-83000000D01*
X185874000Y-83000000D02*
X172774000Y-83000000D01*
%TO.C,J3*%
X140664813Y-80280611D02*
X140662000Y-82996800D01*
X127562000Y-80233575D02*
X127562000Y-82996800D01*
X140662000Y-82996800D02*
X127562000Y-82996800D01*
D11*
%TO.C,J2*%
X153941907Y-69458999D02*
X144950307Y-69458999D01*
X153941907Y-76611828D02*
X153941907Y-74190971D01*
X144950307Y-79315426D02*
X144950307Y-81041399D01*
X144950307Y-74190971D02*
X144950307Y-76611828D01*
X144950307Y-81041399D02*
X146366560Y-81041399D01*
X152525654Y-81041399D02*
X153941907Y-81041399D01*
X144950307Y-69458999D02*
X144950307Y-71881827D01*
X153941907Y-81041399D02*
X153941907Y-79315426D01*
X153941907Y-71881827D02*
X153941907Y-69458999D01*
%TO.C,J1*%
X167598400Y-74720200D02*
X167598400Y-72650200D01*
X162728400Y-75250200D02*
X162128400Y-75250200D01*
X162428400Y-74950200D02*
X162128400Y-75250200D01*
X159842200Y-69748400D02*
X159842200Y-70231000D01*
X160728400Y-74720200D02*
X159858400Y-74720200D01*
X159858400Y-74720200D02*
X159858400Y-72650200D01*
X167598400Y-74720200D02*
X166728400Y-74720200D01*
X162428400Y-74950200D02*
X162728400Y-75250200D01*
X167614600Y-70180200D02*
X167614600Y-69748400D01*
X167614600Y-69748400D02*
X159842200Y-69748400D01*
%TO.C,R1*%
X155635336Y-84815000D02*
X157089464Y-84815000D01*
X155635336Y-86635000D02*
X157089464Y-86635000D01*
%TO.C,CP12*%
X172941400Y-102875500D02*
X172941400Y-99825500D01*
X164421400Y-101811063D02*
X165485837Y-102875500D01*
X164421400Y-95419937D02*
X165485837Y-94355500D01*
X165485837Y-102875500D02*
X172941400Y-102875500D01*
X164421400Y-95419937D02*
X164421400Y-97405500D01*
X172941400Y-94355500D02*
X172941400Y-97405500D01*
X164421400Y-101811063D02*
X164421400Y-99825500D01*
X163181400Y-96405500D02*
X164181400Y-96405500D01*
X163681400Y-95905500D02*
X163681400Y-96905500D01*
X165485837Y-94355500D02*
X172941400Y-94355500D01*
%TO.C,C2*%
X143353733Y-89240000D02*
X143646267Y-89240000D01*
X143353733Y-90260000D02*
X143646267Y-90260000D01*
%TO.C,CP13*%
X159310000Y-77688748D02*
X159310000Y-78211252D01*
X157840000Y-77688748D02*
X157840000Y-78211252D01*
%TO.C,CP10*%
X145586252Y-81565000D02*
X145063748Y-81565000D01*
X145586252Y-83035000D02*
X145063748Y-83035000D01*
%TO.C,CP3*%
X132484800Y-93254552D02*
X132484800Y-92732048D01*
X131014800Y-93254552D02*
X131014800Y-92732048D01*
%TO.C,CP16*%
X168738748Y-86840000D02*
X169261252Y-86840000D01*
X168738748Y-88310000D02*
X169261252Y-88310000D01*
%TO.C,CP9*%
X181983748Y-85596400D02*
X182506252Y-85596400D01*
X181983748Y-84126400D02*
X182506252Y-84126400D01*
%TO.C,C1*%
X148203733Y-88115000D02*
X148496267Y-88115000D01*
X148203733Y-89135000D02*
X148496267Y-89135000D01*
%TO.C,CP17*%
X166085000Y-86386252D02*
X166085000Y-85863748D01*
X164615000Y-86386252D02*
X164615000Y-85863748D01*
%TO.C,CP6*%
X160602600Y-99814748D02*
X160602600Y-100337252D01*
X159132600Y-99814748D02*
X159132600Y-100337252D01*
%TO.C,CP14*%
X130097200Y-93250652D02*
X130097200Y-92728148D01*
X128627200Y-93250652D02*
X128627200Y-92728148D01*
%TO.C,R12*%
X179856676Y-97906100D02*
X180366124Y-97906100D01*
X179856676Y-96861100D02*
X180366124Y-96861100D01*
%TO.C,CP2*%
X133402400Y-93254552D02*
X133402400Y-92732048D01*
X134872400Y-93254552D02*
X134872400Y-92732048D01*
%TO.C,D1*%
X190534400Y-92813200D02*
X188074400Y-92813200D01*
X190534400Y-94283200D02*
X190534400Y-92813200D01*
X188074400Y-94283200D02*
X190534400Y-94283200D01*
%TO.C,D3*%
X190509000Y-88469800D02*
X188049000Y-88469800D01*
X188049000Y-89939800D02*
X190509000Y-89939800D01*
X190509000Y-89939800D02*
X190509000Y-88469800D01*
%TO.C,CP20*%
X162240000Y-86386252D02*
X162240000Y-85863748D01*
X163710000Y-86386252D02*
X163710000Y-85863748D01*
%TO.C,C6*%
X164695600Y-92703433D02*
X164695600Y-92995967D01*
X163675600Y-92703433D02*
X163675600Y-92995967D01*
%TO.C,R6*%
X129445276Y-88402500D02*
X129954724Y-88402500D01*
X129445276Y-89447500D02*
X129954724Y-89447500D01*
%TO.C,Q3*%
X132831800Y-84708400D02*
X134681800Y-84708400D01*
X132831800Y-87758400D02*
X132831800Y-86758400D01*
X132851800Y-87768400D02*
X135281800Y-87768400D01*
X132831800Y-85758400D02*
X132831800Y-84708400D01*
%TO.C,CP5*%
X165190000Y-90438748D02*
X165190000Y-90961252D01*
X166660000Y-90438748D02*
X166660000Y-90961252D01*
%TO.C,Q1*%
X178525000Y-87525000D02*
X176675000Y-87525000D01*
X178525000Y-86475000D02*
X178525000Y-87525000D01*
X178525000Y-84475000D02*
X178525000Y-85475000D01*
X178505000Y-84465000D02*
X176075000Y-84465000D01*
%TO.C,R5*%
X155662100Y-77648524D02*
X155662100Y-77139076D01*
X156707100Y-77648524D02*
X156707100Y-77139076D01*
%TO.C,D2*%
X189699800Y-90603400D02*
X187239800Y-90603400D01*
X187239800Y-90603400D02*
X187239800Y-92073400D01*
X187239800Y-92073400D02*
X189699800Y-92073400D01*
%TO.C,D8*%
X157424000Y-69437800D02*
X155504000Y-69437800D01*
X157424000Y-72297800D02*
X157424000Y-69437800D01*
X155504000Y-69437800D02*
X155504000Y-72297800D01*
%TO.C,CP1*%
X135866200Y-93225252D02*
X135866200Y-92702748D01*
X137336200Y-93225252D02*
X137336200Y-92702748D01*
%TO.C,R8*%
X145720276Y-83702500D02*
X146229724Y-83702500D01*
X145720276Y-84747500D02*
X146229724Y-84747500D01*
%TO.C,R14*%
X185649324Y-94549700D02*
X185139876Y-94549700D01*
X185649324Y-95594700D02*
X185139876Y-95594700D01*
%TO.C,R2*%
X183068700Y-92636424D02*
X183068700Y-92126976D01*
X184113700Y-92636424D02*
X184113700Y-92126976D01*
%TO.C,CP4*%
X158189600Y-99763948D02*
X158189600Y-100286452D01*
X156719600Y-99763948D02*
X156719600Y-100286452D01*
%TO.C,CP7*%
X129500352Y-84736000D02*
X128977848Y-84736000D01*
X129500352Y-86206000D02*
X128977848Y-86206000D01*
%TO.C,R7*%
X183068700Y-88162676D02*
X183068700Y-88672124D01*
X184113700Y-88162676D02*
X184113700Y-88672124D01*
%TO.C,D4*%
X189623600Y-86260000D02*
X187163600Y-86260000D01*
X187163600Y-87730000D02*
X189623600Y-87730000D01*
X187163600Y-86260000D02*
X187163600Y-87730000D01*
%TO.C,RNTC1*%
X178639736Y-95350000D02*
X179093864Y-95350000D01*
X178639736Y-93880000D02*
X179093864Y-93880000D01*
%TO.C,R9*%
X167372500Y-77804724D02*
X167372500Y-77295276D01*
X166327500Y-77804724D02*
X166327500Y-77295276D01*
%TD*%
M02*
