%TF.GenerationSoftware,KiCad,Pcbnew,(6.0.6)*%
%TF.CreationDate,2022-07-25T23:57:12+01:00*%
%TF.ProjectId,Virpar,56697270-6172-42e6-9b69-6361645f7063,rev?*%
%TF.SameCoordinates,Original*%
%TF.FileFunction,Profile,NP*%
%FSLAX46Y46*%
G04 Gerber Fmt 4.6, Leading zero omitted, Abs format (unit mm)*
G04 Created by KiCad (PCBNEW (6.0.6)) date 2022-07-25 23:57:12*
%MOMM*%
%LPD*%
G01*
G04 APERTURE LIST*
%TA.AperFunction,Profile*%
%ADD10C,0.100000*%
%TD*%
G04 APERTURE END LIST*
D10*
X190503931Y-70612000D02*
G75*
G03*
X190503931Y-70612000I-740531J0D01*
G01*
X186068547Y-69058084D02*
X189489325Y-69057275D01*
X140861626Y-69108306D02*
X172560253Y-69101499D01*
X122021600Y-70840600D02*
X122021600Y-74599800D01*
X122631200Y-75209400D02*
X124033293Y-75238184D01*
X190478531Y-102946200D02*
G75*
G03*
X190478531Y-102946200I-740531J0D01*
G01*
X189263856Y-85421339D02*
X190675173Y-85421139D01*
X122018525Y-86021722D02*
X122029118Y-102808050D01*
X190652400Y-75234800D02*
G75*
G03*
X191262000Y-74625200I0J609600D01*
G01*
X191241925Y-70809875D02*
G75*
G03*
X189489325Y-69057275I-1752625J-25D01*
G01*
X189248631Y-75244395D02*
X190652400Y-75234800D01*
X189540125Y-104577125D02*
G75*
G03*
X191292725Y-102824525I-25J1752625D01*
G01*
X122021600Y-74599800D02*
G75*
G03*
X122631200Y-75209400I609600J0D01*
G01*
X123774200Y-69088000D02*
X127330199Y-69088000D01*
X191284761Y-86030739D02*
G75*
G03*
X190675173Y-85421139I-609561J39D01*
G01*
X124209931Y-70688200D02*
G75*
G03*
X124209931Y-70688200I-740531J0D01*
G01*
X191284773Y-86030739D02*
X191292725Y-102824525D01*
X123774200Y-69088000D02*
G75*
G03*
X122021600Y-70840600I0J-1752600D01*
G01*
X124184531Y-103047800D02*
G75*
G03*
X124184531Y-103047800I-740531J0D01*
G01*
X122628125Y-85412125D02*
G75*
G03*
X122018525Y-86021722I-25J-609575D01*
G01*
X172566371Y-70450914D02*
X172560253Y-69101499D01*
X122628125Y-85412122D02*
X124048518Y-85415128D01*
X124033293Y-75238184D02*
X124048518Y-85415128D01*
X140859356Y-70464929D02*
X140861626Y-69108306D01*
X189248631Y-75244395D02*
X189263856Y-85421339D01*
X123781718Y-104560650D02*
X189540125Y-104577125D01*
X191241925Y-70809875D02*
X191262000Y-74625200D01*
X127330199Y-69088000D02*
X127354371Y-70447714D01*
X186071356Y-70468129D02*
X186068547Y-69058084D01*
X122029050Y-102808050D02*
G75*
G03*
X123781718Y-104560650I1752650J50D01*
G01*
%TO.C,J4*%
X172566371Y-70450914D02*
X172574000Y-79450000D01*
X185074000Y-79450000D02*
X173574000Y-79450000D01*
X186074000Y-79450000D02*
X186071356Y-70468129D01*
X185074000Y-79450000D02*
G75*
G03*
X186074000Y-79450000I500000J0D01*
G01*
X172574000Y-79450000D02*
G75*
G03*
X173574000Y-79450000I500000J0D01*
G01*
%TO.C,J3*%
X127354371Y-70447714D02*
X127362000Y-79446800D01*
X139862000Y-79446800D02*
X128362000Y-79446800D01*
X140862000Y-79446800D02*
X140859356Y-70464929D01*
X139862000Y-79446800D02*
G75*
G03*
X140862000Y-79446800I500000J0D01*
G01*
X127362000Y-79446800D02*
G75*
G03*
X128362000Y-79446800I500000J0D01*
G01*
%TD*%
M02*
