M48
; DRILL file {KiCad (6.0.6)} date Mon Jul 25 23:57:19 2022
; FORMAT={-:-/ absolute / inch / decimal}
; #@! TF.CreationDate,2022-07-25T23:57:19+01:00
; #@! TF.GenerationSoftware,Kicad,Pcbnew,(6.0.6)
; #@! TF.FileFunction,Plated,1,4,PTH
FMAT,2
INCH
; #@! TA.AperFunction,Plated,PTH,ComponentDrill
T1C0.0079
; #@! TA.AperFunction,Plated,PTH,ViaDrill
T2C0.0090
; #@! TA.AperFunction,Plated,PTH,ComponentDrill
T3C0.0160
; #@! TA.AperFunction,Plated,PTH,ComponentDrill
T4C0.0236
; #@! TA.AperFunction,Plated,PTH,ComponentDrill
T5C0.0256
; #@! TA.AperFunction,Plated,PTH,ComponentDrill
T6C0.0354
; #@! TA.AperFunction,Plated,PTH,ComponentDrill
T7C0.0362
; #@! TA.AperFunction,Plated,PTH,ComponentDrill
T8C0.0591
%
G90
G05
T1
X6.0533Y-3.5643
X6.0533Y-3.6046
X6.0533Y-3.645
X6.0533Y-3.6854
X6.0533Y-3.7257
X6.0936Y-3.5643
X6.0936Y-3.6046
X6.0936Y-3.645
X6.0936Y-3.6854
X6.0936Y-3.7257
X6.134Y-3.5643
X6.134Y-3.6046
X6.134Y-3.645
X6.134Y-3.6854
X6.134Y-3.7257
X6.1744Y-3.5643
X6.1744Y-3.6046
X6.1744Y-3.645
X6.1744Y-3.6854
X6.1744Y-3.7257
X6.2147Y-3.5643
X6.2147Y-3.6046
X6.2147Y-3.645
X6.2147Y-3.6854
X6.2147Y-3.7257
T2
X5.123Y-3.5591
X5.4419Y-3.3602
X5.4478Y-3.4902
X5.5416Y-3.811
X5.6467Y-3.315
X5.6643Y-3.6247
X5.6836Y-3.5335
X5.7825Y-3.4409
X5.783Y-3.3159
X5.8051Y-3.5826
X5.8066Y-3.4892
X5.8181Y-3.7117
X5.846Y-3.854
X5.8474Y-3.7736
X5.848Y-3.816
X5.8613Y-3.193
X5.8622Y-3.5571
X5.8642Y-3.2441
X5.89Y-3.774
X5.892Y-3.816
X5.893Y-3.855
X5.9144Y-3.2126
X5.9469Y-3.5354
X5.9469Y-3.6319
X5.9518Y-3.2037
X5.9566Y-3.2516
X5.9655Y-3.5118
X5.9685Y-3.6102
X5.987Y-3.769
X6.014Y-3.777
X6.0295Y-3.5197
X6.031Y-3.803
X6.062Y-3.823
X6.071Y-3.844
X6.073Y-3.435
X6.081Y-3.869
X6.1053Y-3.0502
X6.118Y-3.862
X6.122Y-3.4587
X6.127Y-3.1467
X6.144Y-3.863
X6.149Y-3.0829
X6.2343Y-3.2746
X6.24Y-3.521
X6.282Y-3.553
X6.3071Y-2.8839
X6.3173Y-3.1937
X6.334Y-3.642
X6.3341Y-3.5958
X6.345Y-3.155
X6.3455Y-3.3386
X6.346Y-3.492
X6.3484Y-3.233
X6.349Y-3.437
X6.362Y-3.617
X6.379Y-3.523
X6.383Y-3.466
X6.384Y-3.192
X6.387Y-3.642
X6.3873Y-3.73
X6.39Y-3.596
X6.39Y-3.8025
X6.391Y-3.8585
X6.393Y-3.9155
X6.393Y-3.9725
X6.41Y-3.154
X6.412Y-3.229
X6.419Y-3.437
X6.421Y-3.493
X6.421Y-3.749
X6.428Y-3.8305
X6.4281Y-2.9872
X6.432Y-3.8905
X6.433Y-3.9505
X6.442Y-3.189
X6.457Y-3.525
X6.458Y-3.465
X6.46Y-2.987
X6.461Y-3.8025
X6.464Y-3.8585
X6.4665Y-3.0571
X6.467Y-3.9155
X6.468Y-3.9765
X6.469Y-3.228
X6.472Y-3.154
X6.491Y-3.491
X6.492Y-3.436
X6.5Y-3.19
X6.505Y-3.9485
X6.506Y-3.8895
X6.507Y-3.8275
X6.531Y-3.524
X6.532Y-3.465
X6.539Y-3.9755
X6.54Y-3.8615
X6.54Y-3.9165
X6.545Y-3.7985
X6.57Y-3.492
X6.571Y-3.437
X6.582Y-3.8895
X6.582Y-3.9485
X6.584Y-3.8285
X6.592Y-3.686
X6.605Y-3.463
X6.608Y-3.523
X6.646Y-3.687
X6.723Y-3.513
X6.7717Y-3.4281
X6.874Y-3.787
X7.0026Y-3.725
X7.0817Y-3.7254
T3
X5.7735Y-3.1069
X5.7892Y-3.0794
X5.805Y-3.1069
X5.8207Y-3.0794
X5.8365Y-3.1069
X5.8522Y-3.0794
X5.868Y-3.1069
X5.8995Y-3.1069
X5.9152Y-3.0794
X5.931Y-3.1069
X5.9467Y-3.0794
X5.9625Y-3.1069
X5.9782Y-3.0794
X5.994Y-3.1069
T7
X5.142Y-3.228
X5.2406Y-3.2282
X5.3194Y-3.2282
X5.4178Y-3.2282
X6.922Y-3.2281
X7.0206Y-3.2283
X7.0994Y-3.2283
X7.1978Y-3.2283
T4
G00X5.7156Y-2.8636
M15
G01X5.7156Y-2.8873
M16
G05
G00X5.7156Y-3.0499
M15
G01X5.7156Y-3.0735
M16
G05
G00X6.0518Y-2.8636
M15
G01X6.0518Y-2.8873
M16
G05
G00X6.054Y-3.0492
M15
G01X6.054Y-3.0728
M16
G05
G00X6.3Y-2.8268
M15
G01X6.3Y-2.7992
M16
G05
G00X6.59Y-2.8268
M15
G01X6.59Y-2.7992
M16
G05
T5
G00X6.352Y-2.935
M15
G01X6.352Y-2.9272
M16
G05
G00X6.542Y-2.935
M15
G01X6.542Y-2.9272
M16
G05
T6
G00X4.981Y-3.2255
M15
G01X4.981Y-3.1585
M16
G05
G00X5.58Y-3.2255
M15
G01X5.58Y-3.1585
M16
G05
G00X6.761Y-3.2256
M15
G01X6.761Y-3.1587
M16
G05
G00X7.36Y-3.2256
M15
G01X7.36Y-3.1587
M16
G05
T8
G00X5.0755Y-4.009
M15
G01X5.1345Y-4.009
M16
G05
G00X7.2115Y-4.013
M15
G01X7.2705Y-4.013
M16
G05
T0
M30
