%TF.GenerationSoftware,KiCad,Pcbnew,(6.0.6)*%
%TF.CreationDate,2022-07-25T23:57:11+01:00*%
%TF.ProjectId,Virpar,56697270-6172-42e6-9b69-6361645f7063,rev?*%
%TF.SameCoordinates,Original*%
%TF.FileFunction,Copper,L2,Inr*%
%TF.FilePolarity,Positive*%
%FSLAX46Y46*%
G04 Gerber Fmt 4.6, Leading zero omitted, Abs format (unit mm)*
G04 Created by KiCad (PCBNEW (6.0.6)) date 2022-07-25 23:57:11*
%MOMM*%
%LPD*%
G01*
G04 APERTURE LIST*
G04 Aperture macros list*
%AMRoundRect*
0 Rectangle with rounded corners*
0 $1 Rounding radius*
0 $2 $3 $4 $5 $6 $7 $8 $9 X,Y pos of 4 corners*
0 Add a 4 corners polygon primitive as box body*
4,1,4,$2,$3,$4,$5,$6,$7,$8,$9,$2,$3,0*
0 Add four circle primitives for the rounded corners*
1,1,$1+$1,$2,$3*
1,1,$1+$1,$4,$5*
1,1,$1+$1,$6,$7*
1,1,$1+$1,$8,$9*
0 Add four rect primitives between the rounded corners*
20,1,$1+$1,$2,$3,$4,$5,0*
20,1,$1+$1,$4,$5,$6,$7,0*
20,1,$1+$1,$6,$7,$8,$9,0*
20,1,$1+$1,$8,$9,$2,$3,0*%
G04 Aperture macros list end*
%TA.AperFunction,ComponentPad*%
%ADD10C,0.500000*%
%TD*%
%TA.AperFunction,ComponentPad*%
%ADD11RoundRect,0.875000X-2.625000X-0.875000X2.625000X-0.875000X2.625000X0.875000X-2.625000X0.875000X0*%
%TD*%
%TA.AperFunction,ComponentPad*%
%ADD12R,1.524000X1.524000*%
%TD*%
%TA.AperFunction,ComponentPad*%
%ADD13C,1.524000*%
%TD*%
%TA.AperFunction,ComponentPad*%
%ADD14O,1.700000X3.500000*%
%TD*%
%TA.AperFunction,ComponentPad*%
%ADD15C,0.660400*%
%TD*%
%TA.AperFunction,ComponentPad*%
%ADD16O,1.117600X1.701800*%
%TD*%
%TA.AperFunction,ComponentPad*%
%ADD17O,1.050000X1.250000*%
%TD*%
%TA.AperFunction,ComponentPad*%
%ADD18O,1.000000X1.900000*%
%TD*%
%TA.AperFunction,ViaPad*%
%ADD19C,0.457200*%
%TD*%
%TA.AperFunction,ViaPad*%
%ADD20C,0.685800*%
%TD*%
%TA.AperFunction,Conductor*%
%ADD21C,0.228600*%
%TD*%
%TA.AperFunction,Conductor*%
%ADD22C,2.286000*%
%TD*%
%TA.AperFunction,Conductor*%
%ADD23C,1.270000*%
%TD*%
%TA.AperFunction,Conductor*%
%ADD24C,3.048000*%
%TD*%
G04 APERTURE END LIST*
D10*
%TO.N,GND*%
%TO.C,U1*%
X157853600Y-93608000D03*
X154778600Y-93608000D03*
X157853600Y-92583000D03*
X157853600Y-94633000D03*
X154778600Y-94633000D03*
X157853600Y-91558000D03*
X155803600Y-92583000D03*
X153753600Y-91558000D03*
X155803600Y-93608000D03*
X155803600Y-91558000D03*
X153753600Y-90533000D03*
X153753600Y-94633000D03*
X154778600Y-91558000D03*
X155803600Y-90533000D03*
X156828600Y-91558000D03*
X156828600Y-90533000D03*
X156828600Y-92583000D03*
X154778600Y-92583000D03*
X153753600Y-93608000D03*
X156828600Y-93608000D03*
X155803600Y-94633000D03*
X156828600Y-94633000D03*
X157853600Y-90533000D03*
X154778600Y-90533000D03*
X153753600Y-92583000D03*
%TD*%
D11*
%TO.N,VBAT+*%
%TO.C,BAT+*%
X129667000Y-101828600D03*
%TD*%
%TO.N,GND*%
%TO.C,BAT-*%
X183921400Y-101930200D03*
%TD*%
D12*
%TO.N,VOUT2*%
%TO.C,J4*%
X175818800Y-81994400D03*
D13*
%TO.N,DPA2*%
X178324000Y-82000000D03*
%TO.N,DMA2*%
X180324000Y-82000000D03*
%TO.N,GND*%
X182824000Y-82000000D03*
D14*
X171729400Y-81080000D03*
X186944000Y-81080000D03*
%TD*%
D12*
%TO.N,VOUT1*%
%TO.C,J3*%
X130606800Y-81991200D03*
D13*
%TO.N,DPA1*%
X133112000Y-81996800D03*
%TO.N,DMA1*%
X135112000Y-81996800D03*
%TO.N,GND*%
X137612000Y-81996800D03*
D14*
X126517400Y-81076800D03*
X141732000Y-81076800D03*
%TD*%
D15*
%TO.N,N/C*%
%TO.C,J2*%
X147445792Y-78916399D03*
X151446422Y-78916399D03*
%TO.N,GND*%
X146645666Y-78916399D03*
%TO.N,unconnected-(J2-PadB2)*%
X147045792Y-78216398D03*
%TO.N,unconnected-(J2-PadB3)*%
X147845918Y-78216398D03*
%TO.N,VBUS*%
X148245918Y-78916399D03*
%TO.N,CC2*%
X148646044Y-78216398D03*
%TO.N,DPC*%
X149046044Y-78916399D03*
%TO.N,DMC*%
X149846170Y-78916399D03*
%TO.N,unconnected-(J2-PadB8)*%
X150246170Y-78216398D03*
%TO.N,VBUS*%
X150646296Y-78916399D03*
%TO.N,unconnected-(J2-PadB10)*%
X151046296Y-78216398D03*
%TO.N,unconnected-(J2-PadB11)*%
X151846422Y-78216398D03*
%TO.N,GND*%
X152246548Y-78916399D03*
D16*
X145176108Y-77766399D03*
X153716108Y-73036399D03*
X153771600Y-77749400D03*
X145176108Y-73036399D03*
%TD*%
D17*
%TO.N,GND*%
%TO.C,J1*%
X161340800Y-74450200D03*
D18*
X167386000Y-71450200D03*
D17*
X166166800Y-74450200D03*
D18*
X160020000Y-71450200D03*
%TD*%
D19*
%TO.N,VMID*%
X160460000Y-81120000D03*
%TO.N,DPC*%
X143425000Y-84200000D03*
%TO.N,GND*%
X179875000Y-94625000D03*
X147487500Y-88625000D03*
X161175000Y-84800000D03*
%TO.N,VBAT+*%
X140756996Y-96799400D03*
X144362500Y-89750000D03*
%TO.N,VSYS*%
X165277800Y-97218500D03*
X163271200Y-97294700D03*
X162331400Y-98005900D03*
X165912800Y-88011000D03*
X164261800Y-99453700D03*
X164896800Y-87274400D03*
X164033200Y-88011000D03*
X163372800Y-98818700D03*
X163398200Y-100342700D03*
X162026600Y-89484200D03*
X164007800Y-89535000D03*
X163093400Y-88722200D03*
X162306000Y-96583500D03*
X166116000Y-98082100D03*
X166116000Y-99479100D03*
X167233600Y-97243900D03*
X161188400Y-88696800D03*
X166243000Y-96481900D03*
X167182800Y-100291900D03*
X166903400Y-87299800D03*
X161264600Y-87299800D03*
X167767000Y-87960200D03*
X162382200Y-100901500D03*
X164185600Y-98005900D03*
X162128200Y-88036400D03*
X167182800Y-98793300D03*
X167843200Y-89484200D03*
X165252400Y-98793300D03*
X164287200Y-101003100D03*
X166878000Y-88696800D03*
X165887400Y-89509600D03*
X164871400Y-88671400D03*
X163042600Y-87299800D03*
X164109400Y-96583500D03*
X166090600Y-100977700D03*
X165227000Y-100291900D03*
X162382200Y-99453700D03*
%TO.N,VMID*%
X164312600Y-81991200D03*
X165100000Y-81026000D03*
X161250000Y-82118200D03*
X162814000Y-80111600D03*
X163626800Y-81000600D03*
X164388800Y-80111600D03*
X154254200Y-87249000D03*
X161163000Y-80137000D03*
X162864800Y-82016600D03*
X162153600Y-81076800D03*
%TO.N,Net-(C6-Pad2)*%
X162229800Y-92506800D03*
X160885613Y-91333000D03*
X162306000Y-91338400D03*
X148525000Y-95850000D03*
X161594800Y-91871800D03*
X149682200Y-97917000D03*
X148488400Y-97891600D03*
X149606000Y-95859600D03*
X149656800Y-96926400D03*
X148539200Y-96926400D03*
X160883600Y-92506800D03*
%TO.N,VOUT1*%
X138225000Y-85350000D03*
X147450337Y-90996790D03*
%TO.N,VOUT2*%
X158350000Y-83175000D03*
X151600000Y-91700000D03*
%TO.N,VBUS*%
X151297000Y-82590600D03*
X151050000Y-89800000D03*
D20*
X151175009Y-81374996D03*
D19*
%TO.N,VIN*%
X153150000Y-89400000D03*
D20*
X160200010Y-73249993D03*
D19*
X155625000Y-79925000D03*
%TO.N,DMB*%
X155397200Y-98094800D03*
X163275000Y-75875000D03*
%TO.N,DPB*%
X164084000Y-75869800D03*
X156057600Y-98120200D03*
%TO.N,CC1*%
X153187400Y-96596200D03*
X150225000Y-81600000D03*
%TO.N,DPC*%
X148950000Y-82400000D03*
X154457400Y-98272600D03*
%TO.N,DMC*%
X148876844Y-81101844D03*
X154203400Y-97637600D03*
%TO.N,CC2*%
X153974800Y-97104200D03*
%TO.N,DPA1*%
X147780936Y-94275971D03*
%TO.N,DMA1*%
X143873286Y-92066843D03*
%TO.N,DPA2*%
X152755600Y-95935800D03*
%TO.N,DMA2*%
X152069800Y-95732600D03*
X170764200Y-89230200D03*
%TO.N,VOUT2G*%
X172000000Y-87075000D03*
X151050000Y-92250000D03*
%TO.N,VBUSG*%
X146887500Y-84225000D03*
X148900000Y-90350000D03*
%TO.N,VING*%
X164250000Y-77650000D03*
X155075000Y-77475000D03*
X151522829Y-89200000D03*
%TO.N,Net-(R2-Pad1)*%
X162236336Y-94742000D03*
X168808400Y-93649800D03*
%TO.N,LIGHT*%
X156184600Y-78306300D03*
X159562800Y-90246200D03*
%TO.N,KEY*%
X146875000Y-87400000D03*
X130125000Y-90400000D03*
X138375000Y-88650000D03*
X155500000Y-87850000D03*
%TO.N,Net-(R7-Pad1)*%
X167436800Y-93624400D03*
X163093400Y-95224600D03*
%TO.N,Net-(R10-Pad2)*%
X158496000Y-89433400D03*
%TO.N,Net-(R12-Pad1)*%
X177866800Y-94615000D03*
X174599600Y-96189800D03*
%TD*%
D21*
%TO.N,DPB*%
X162771490Y-77182310D02*
X164084000Y-75869800D01*
X162325339Y-77182310D02*
X162771490Y-77182310D01*
X160135547Y-95617053D02*
X160135547Y-82830988D01*
X159580105Y-82275546D02*
X159580105Y-79927544D01*
X157632400Y-98120200D02*
X160135547Y-95617053D01*
X160135547Y-82830988D02*
X159580105Y-82275546D01*
X159580105Y-79927544D02*
X162325339Y-77182310D01*
X156057600Y-98120200D02*
X157632400Y-98120200D01*
D22*
%TO.N,GND*%
X147170716Y-92802771D02*
X149427771Y-92802771D01*
X149427771Y-92802771D02*
X150875000Y-94250000D01*
X145200000Y-94773487D02*
X147170716Y-92802771D01*
X148575000Y-102825000D02*
X145200000Y-99450000D01*
X145200000Y-99450000D02*
X145200000Y-94773487D01*
X170175000Y-102825000D02*
X148575000Y-102825000D01*
X183921400Y-101930200D02*
X171069800Y-101930200D01*
X171069800Y-101930200D02*
X170175000Y-102825000D01*
D23*
X154136600Y-94250000D02*
X155803600Y-92583000D01*
D22*
X150875009Y-94250002D02*
X154136598Y-94250002D01*
D21*
%TO.N,DPC*%
X148300000Y-83050000D02*
X148950000Y-82400000D01*
X144150000Y-83050000D02*
X148300000Y-83050000D01*
X143425000Y-83775000D02*
X144150000Y-83050000D01*
X143425000Y-84200000D02*
X143425000Y-83775000D01*
%TO.N,VBAT+*%
X142799267Y-96527670D02*
X142515799Y-96811138D01*
X142799267Y-91313233D02*
X142799267Y-96527670D01*
X144362500Y-89750000D02*
X142799267Y-91313233D01*
X142515799Y-96811138D02*
X140754609Y-96811138D01*
D24*
%TO.N,VSYS*%
X165277800Y-97218500D02*
X165277800Y-88094439D01*
D21*
%TO.N,VOUT2*%
X151966829Y-90336573D02*
X151966829Y-88907753D01*
X151966829Y-88907753D02*
X156991341Y-83883241D01*
X151600000Y-90703402D02*
X151966829Y-90336573D01*
X156991341Y-83882524D02*
X157698865Y-83175000D01*
X156991341Y-83883241D02*
X156991341Y-83882524D01*
X151600000Y-91700000D02*
X151600000Y-90703402D01*
X157698865Y-83175000D02*
X158350000Y-83175000D01*
%TO.N,VBUS*%
X148575000Y-79725000D02*
X149837695Y-79725000D01*
X148245918Y-78916399D02*
X148245918Y-79395918D01*
X149837695Y-79725000D02*
X150646296Y-78916399D01*
X148245918Y-79395918D02*
X148575000Y-79725000D01*
%TO.N,DMB*%
X159067500Y-79768700D02*
X161984090Y-76852110D01*
X156527500Y-96964500D02*
X158178500Y-96964500D01*
X159067500Y-96075500D02*
X159067500Y-79768700D01*
X161984090Y-76852110D02*
X162586975Y-76852110D01*
X162586975Y-76852110D02*
X163275000Y-76164085D01*
X158178500Y-96964500D02*
X159067500Y-96075500D01*
X163275000Y-76164085D02*
X163275000Y-75875000D01*
X155397200Y-98094800D02*
X156527500Y-96964500D01*
%TD*%
M02*
