%TF.GenerationSoftware,KiCad,Pcbnew,(6.0.6)*%
%TF.CreationDate,2022-07-25T23:57:12+01:00*%
%TF.ProjectId,Virpar,56697270-6172-42e6-9b69-6361645f7063,rev?*%
%TF.SameCoordinates,Original*%
%TF.FileFunction,Legend,Bot*%
%TF.FilePolarity,Positive*%
%FSLAX46Y46*%
G04 Gerber Fmt 4.6, Leading zero omitted, Abs format (unit mm)*
G04 Created by KiCad (PCBNEW (6.0.6)) date 2022-07-25 23:57:12*
%MOMM*%
%LPD*%
G01*
G04 APERTURE LIST*
%ADD10C,0.200000*%
%ADD11C,0.150000*%
%ADD12C,0.120000*%
G04 APERTURE END LIST*
D10*
X139180000Y-102676807D02*
X173330000Y-102670000D01*
X138153809Y-101518095D02*
X137820476Y-102818095D01*
X137487142Y-101518095D01*
X136630000Y-102818095D02*
X137201428Y-102818095D01*
X136915714Y-102818095D02*
X136915714Y-101518095D01*
X137010952Y-101703809D01*
X137106190Y-101827619D01*
X137201428Y-101889523D01*
X136201428Y-102694285D02*
X136153809Y-102756190D01*
X136201428Y-102818095D01*
X136249047Y-102756190D01*
X136201428Y-102694285D01*
X136201428Y-102818095D01*
X135534761Y-101518095D02*
X135439523Y-101518095D01*
X135344285Y-101580000D01*
X135296666Y-101641904D01*
X135249047Y-101765714D01*
X135201428Y-102013333D01*
X135201428Y-102322857D01*
X135249047Y-102570476D01*
X135296666Y-102694285D01*
X135344285Y-102756190D01*
X135439523Y-102818095D01*
X135534761Y-102818095D01*
X135630000Y-102756190D01*
X135677619Y-102694285D01*
X135725238Y-102570476D01*
X135772857Y-102322857D01*
X135772857Y-102013333D01*
X135725238Y-101765714D01*
X135677619Y-101641904D01*
X135630000Y-101580000D01*
X135534761Y-101518095D01*
X178255238Y-101378095D02*
X177921904Y-102678095D01*
X177588571Y-101378095D01*
X177255238Y-102678095D02*
X177255238Y-101811428D01*
X177255238Y-101378095D02*
X177302857Y-101440000D01*
X177255238Y-101501904D01*
X177207619Y-101440000D01*
X177255238Y-101378095D01*
X177255238Y-101501904D01*
X176779047Y-102678095D02*
X176779047Y-101811428D01*
X176779047Y-102059047D02*
X176731428Y-101935238D01*
X176683809Y-101873333D01*
X176588571Y-101811428D01*
X176493333Y-101811428D01*
X176160000Y-101811428D02*
X176160000Y-103111428D01*
X176160000Y-101873333D02*
X176064761Y-101811428D01*
X175874285Y-101811428D01*
X175779047Y-101873333D01*
X175731428Y-101935238D01*
X175683809Y-102059047D01*
X175683809Y-102430476D01*
X175731428Y-102554285D01*
X175779047Y-102616190D01*
X175874285Y-102678095D01*
X176064761Y-102678095D01*
X176160000Y-102616190D01*
X174826666Y-102678095D02*
X174826666Y-101997142D01*
X174874285Y-101873333D01*
X174969523Y-101811428D01*
X175160000Y-101811428D01*
X175255238Y-101873333D01*
X174826666Y-102616190D02*
X174921904Y-102678095D01*
X175160000Y-102678095D01*
X175255238Y-102616190D01*
X175302857Y-102492380D01*
X175302857Y-102368571D01*
X175255238Y-102244761D01*
X175160000Y-102182857D01*
X174921904Y-102182857D01*
X174826666Y-102120952D01*
X174350476Y-102678095D02*
X174350476Y-101811428D01*
X174350476Y-102059047D02*
X174302857Y-101935238D01*
X174255238Y-101873333D01*
X174160000Y-101811428D01*
X174064761Y-101811428D01*
D11*
%TO.C,CP19*%
X167539942Y-83667742D02*
X167587561Y-83620123D01*
X167635180Y-83477266D01*
X167635180Y-83382028D01*
X167587561Y-83239171D01*
X167492323Y-83143933D01*
X167397085Y-83096314D01*
X167206609Y-83048695D01*
X167063752Y-83048695D01*
X166873276Y-83096314D01*
X166778038Y-83143933D01*
X166682800Y-83239171D01*
X166635180Y-83382028D01*
X166635180Y-83477266D01*
X166682800Y-83620123D01*
X166730419Y-83667742D01*
X167635180Y-84096314D02*
X166635180Y-84096314D01*
X166635180Y-84477266D01*
X166682800Y-84572504D01*
X166730419Y-84620123D01*
X166825657Y-84667742D01*
X166968514Y-84667742D01*
X167063752Y-84620123D01*
X167111371Y-84572504D01*
X167158990Y-84477266D01*
X167158990Y-84096314D01*
X167635180Y-85620123D02*
X167635180Y-85048695D01*
X167635180Y-85334409D02*
X166635180Y-85334409D01*
X166778038Y-85239171D01*
X166873276Y-85143933D01*
X166920895Y-85048695D01*
X167635180Y-86096314D02*
X167635180Y-86286790D01*
X167587561Y-86382028D01*
X167539942Y-86429647D01*
X167397085Y-86524885D01*
X167206609Y-86572504D01*
X166825657Y-86572504D01*
X166730419Y-86524885D01*
X166682800Y-86477266D01*
X166635180Y-86382028D01*
X166635180Y-86191552D01*
X166682800Y-86096314D01*
X166730419Y-86048695D01*
X166825657Y-86001076D01*
X167063752Y-86001076D01*
X167158990Y-86048695D01*
X167206609Y-86096314D01*
X167254228Y-86191552D01*
X167254228Y-86382028D01*
X167206609Y-86477266D01*
X167158990Y-86524885D01*
X167063752Y-86572504D01*
%TO.C,C3*%
X159856466Y-86031342D02*
X159904085Y-86078961D01*
X160046942Y-86126580D01*
X160142180Y-86126580D01*
X160285038Y-86078961D01*
X160380276Y-85983723D01*
X160427895Y-85888485D01*
X160475514Y-85698009D01*
X160475514Y-85555152D01*
X160427895Y-85364676D01*
X160380276Y-85269438D01*
X160285038Y-85174200D01*
X160142180Y-85126580D01*
X160046942Y-85126580D01*
X159904085Y-85174200D01*
X159856466Y-85221819D01*
X159523133Y-85126580D02*
X158904085Y-85126580D01*
X159237419Y-85507533D01*
X159094561Y-85507533D01*
X158999323Y-85555152D01*
X158951704Y-85602771D01*
X158904085Y-85698009D01*
X158904085Y-85936104D01*
X158951704Y-86031342D01*
X158999323Y-86078961D01*
X159094561Y-86126580D01*
X159380276Y-86126580D01*
X159475514Y-86078961D01*
X159523133Y-86031342D01*
%TO.C,C4*%
X153049266Y-86158342D02*
X153096885Y-86205961D01*
X153239742Y-86253580D01*
X153334980Y-86253580D01*
X153477838Y-86205961D01*
X153573076Y-86110723D01*
X153620695Y-86015485D01*
X153668314Y-85825009D01*
X153668314Y-85682152D01*
X153620695Y-85491676D01*
X153573076Y-85396438D01*
X153477838Y-85301200D01*
X153334980Y-85253580D01*
X153239742Y-85253580D01*
X153096885Y-85301200D01*
X153049266Y-85348819D01*
X152192123Y-85586914D02*
X152192123Y-86253580D01*
X152430219Y-85205961D02*
X152668314Y-85920247D01*
X152049266Y-85920247D01*
%TO.C,Q4*%
X163055738Y-77708019D02*
X163150976Y-77660400D01*
X163246214Y-77565161D01*
X163389071Y-77422304D01*
X163484309Y-77374685D01*
X163579547Y-77374685D01*
X163531928Y-77612780D02*
X163627166Y-77565161D01*
X163722404Y-77469923D01*
X163770023Y-77279447D01*
X163770023Y-76946114D01*
X163722404Y-76755638D01*
X163627166Y-76660400D01*
X163531928Y-76612780D01*
X163341452Y-76612780D01*
X163246214Y-76660400D01*
X163150976Y-76755638D01*
X163103357Y-76946114D01*
X163103357Y-77279447D01*
X163150976Y-77469923D01*
X163246214Y-77565161D01*
X163341452Y-77612780D01*
X163531928Y-77612780D01*
X162246214Y-76946114D02*
X162246214Y-77612780D01*
X162484309Y-76565161D02*
X162722404Y-77279447D01*
X162103357Y-77279447D01*
%TO.C,R10*%
X156527780Y-86225142D02*
X156051590Y-85891809D01*
X156527780Y-85653714D02*
X155527780Y-85653714D01*
X155527780Y-86034666D01*
X155575400Y-86129904D01*
X155623019Y-86177523D01*
X155718257Y-86225142D01*
X155861114Y-86225142D01*
X155956352Y-86177523D01*
X156003971Y-86129904D01*
X156051590Y-86034666D01*
X156051590Y-85653714D01*
X156527780Y-87177523D02*
X156527780Y-86606095D01*
X156527780Y-86891809D02*
X155527780Y-86891809D01*
X155670638Y-86796571D01*
X155765876Y-86701333D01*
X155813495Y-86606095D01*
X155527780Y-87796571D02*
X155527780Y-87891809D01*
X155575400Y-87987047D01*
X155623019Y-88034666D01*
X155718257Y-88082285D01*
X155908733Y-88129904D01*
X156146828Y-88129904D01*
X156337304Y-88082285D01*
X156432542Y-88034666D01*
X156480161Y-87987047D01*
X156527780Y-87891809D01*
X156527780Y-87796571D01*
X156480161Y-87701333D01*
X156432542Y-87653714D01*
X156337304Y-87606095D01*
X156146828Y-87558476D01*
X155908733Y-87558476D01*
X155718257Y-87606095D01*
X155623019Y-87653714D01*
X155575400Y-87701333D01*
X155527780Y-87796571D01*
%TO.C,CP18*%
X172417857Y-94707142D02*
X172465476Y-94754761D01*
X172608333Y-94802380D01*
X172703571Y-94802380D01*
X172846428Y-94754761D01*
X172941666Y-94659523D01*
X172989285Y-94564285D01*
X173036904Y-94373809D01*
X173036904Y-94230952D01*
X172989285Y-94040476D01*
X172941666Y-93945238D01*
X172846428Y-93850000D01*
X172703571Y-93802380D01*
X172608333Y-93802380D01*
X172465476Y-93850000D01*
X172417857Y-93897619D01*
X171989285Y-94802380D02*
X171989285Y-93802380D01*
X171608333Y-93802380D01*
X171513095Y-93850000D01*
X171465476Y-93897619D01*
X171417857Y-93992857D01*
X171417857Y-94135714D01*
X171465476Y-94230952D01*
X171513095Y-94278571D01*
X171608333Y-94326190D01*
X171989285Y-94326190D01*
X170465476Y-94802380D02*
X171036904Y-94802380D01*
X170751190Y-94802380D02*
X170751190Y-93802380D01*
X170846428Y-93945238D01*
X170941666Y-94040476D01*
X171036904Y-94088095D01*
X169894047Y-94230952D02*
X169989285Y-94183333D01*
X170036904Y-94135714D01*
X170084523Y-94040476D01*
X170084523Y-93992857D01*
X170036904Y-93897619D01*
X169989285Y-93850000D01*
X169894047Y-93802380D01*
X169703571Y-93802380D01*
X169608333Y-93850000D01*
X169560714Y-93897619D01*
X169513095Y-93992857D01*
X169513095Y-94040476D01*
X169560714Y-94135714D01*
X169608333Y-94183333D01*
X169703571Y-94230952D01*
X169894047Y-94230952D01*
X169989285Y-94278571D01*
X170036904Y-94326190D01*
X170084523Y-94421428D01*
X170084523Y-94611904D01*
X170036904Y-94707142D01*
X169989285Y-94754761D01*
X169894047Y-94802380D01*
X169703571Y-94802380D01*
X169608333Y-94754761D01*
X169560714Y-94707142D01*
X169513095Y-94611904D01*
X169513095Y-94421428D01*
X169560714Y-94326190D01*
X169608333Y-94278571D01*
X169703571Y-94230952D01*
%TO.C,Q2*%
X149245238Y-86472619D02*
X149340476Y-86425000D01*
X149435714Y-86329761D01*
X149578571Y-86186904D01*
X149673809Y-86139285D01*
X149769047Y-86139285D01*
X149721428Y-86377380D02*
X149816666Y-86329761D01*
X149911904Y-86234523D01*
X149959523Y-86044047D01*
X149959523Y-85710714D01*
X149911904Y-85520238D01*
X149816666Y-85425000D01*
X149721428Y-85377380D01*
X149530952Y-85377380D01*
X149435714Y-85425000D01*
X149340476Y-85520238D01*
X149292857Y-85710714D01*
X149292857Y-86044047D01*
X149340476Y-86234523D01*
X149435714Y-86329761D01*
X149530952Y-86377380D01*
X149721428Y-86377380D01*
X148911904Y-85472619D02*
X148864285Y-85425000D01*
X148769047Y-85377380D01*
X148530952Y-85377380D01*
X148435714Y-85425000D01*
X148388095Y-85472619D01*
X148340476Y-85567857D01*
X148340476Y-85663095D01*
X148388095Y-85805952D01*
X148959523Y-86377380D01*
X148340476Y-86377380D01*
%TO.C,CP15*%
X167082142Y-92482142D02*
X167129761Y-92434523D01*
X167177380Y-92291666D01*
X167177380Y-92196428D01*
X167129761Y-92053571D01*
X167034523Y-91958333D01*
X166939285Y-91910714D01*
X166748809Y-91863095D01*
X166605952Y-91863095D01*
X166415476Y-91910714D01*
X166320238Y-91958333D01*
X166225000Y-92053571D01*
X166177380Y-92196428D01*
X166177380Y-92291666D01*
X166225000Y-92434523D01*
X166272619Y-92482142D01*
X167177380Y-92910714D02*
X166177380Y-92910714D01*
X166177380Y-93291666D01*
X166225000Y-93386904D01*
X166272619Y-93434523D01*
X166367857Y-93482142D01*
X166510714Y-93482142D01*
X166605952Y-93434523D01*
X166653571Y-93386904D01*
X166701190Y-93291666D01*
X166701190Y-92910714D01*
X167177380Y-94434523D02*
X167177380Y-93863095D01*
X167177380Y-94148809D02*
X166177380Y-94148809D01*
X166320238Y-94053571D01*
X166415476Y-93958333D01*
X166463095Y-93863095D01*
X166177380Y-95339285D02*
X166177380Y-94863095D01*
X166653571Y-94815476D01*
X166605952Y-94863095D01*
X166558333Y-94958333D01*
X166558333Y-95196428D01*
X166605952Y-95291666D01*
X166653571Y-95339285D01*
X166748809Y-95386904D01*
X166986904Y-95386904D01*
X167082142Y-95339285D01*
X167129761Y-95291666D01*
X167177380Y-95196428D01*
X167177380Y-94958333D01*
X167129761Y-94863095D01*
X167082142Y-94815476D01*
%TO.C,CP8*%
X168459066Y-79909942D02*
X168506685Y-79957561D01*
X168649542Y-80005180D01*
X168744780Y-80005180D01*
X168887638Y-79957561D01*
X168982876Y-79862323D01*
X169030495Y-79767085D01*
X169078114Y-79576609D01*
X169078114Y-79433752D01*
X169030495Y-79243276D01*
X168982876Y-79148038D01*
X168887638Y-79052800D01*
X168744780Y-79005180D01*
X168649542Y-79005180D01*
X168506685Y-79052800D01*
X168459066Y-79100419D01*
X168030495Y-80005180D02*
X168030495Y-79005180D01*
X167649542Y-79005180D01*
X167554304Y-79052800D01*
X167506685Y-79100419D01*
X167459066Y-79195657D01*
X167459066Y-79338514D01*
X167506685Y-79433752D01*
X167554304Y-79481371D01*
X167649542Y-79528990D01*
X168030495Y-79528990D01*
X166887638Y-79433752D02*
X166982876Y-79386133D01*
X167030495Y-79338514D01*
X167078114Y-79243276D01*
X167078114Y-79195657D01*
X167030495Y-79100419D01*
X166982876Y-79052800D01*
X166887638Y-79005180D01*
X166697161Y-79005180D01*
X166601923Y-79052800D01*
X166554304Y-79100419D01*
X166506685Y-79195657D01*
X166506685Y-79243276D01*
X166554304Y-79338514D01*
X166601923Y-79386133D01*
X166697161Y-79433752D01*
X166887638Y-79433752D01*
X166982876Y-79481371D01*
X167030495Y-79528990D01*
X167078114Y-79624228D01*
X167078114Y-79814704D01*
X167030495Y-79909942D01*
X166982876Y-79957561D01*
X166887638Y-80005180D01*
X166697161Y-80005180D01*
X166601923Y-79957561D01*
X166554304Y-79909942D01*
X166506685Y-79814704D01*
X166506685Y-79624228D01*
X166554304Y-79528990D01*
X166601923Y-79481371D01*
X166697161Y-79433752D01*
D12*
%TO.C,CP19*%
X164254548Y-85393200D02*
X164777052Y-85393200D01*
X164254548Y-83923200D02*
X164777052Y-83923200D01*
%TO.C,C3*%
X159078200Y-88258867D02*
X159078200Y-87966333D01*
X160098200Y-88258867D02*
X160098200Y-87966333D01*
%TO.C,C4*%
X153486067Y-86789800D02*
X153193533Y-86789800D01*
X153486067Y-87809800D02*
X153193533Y-87809800D01*
%TO.C,Q4*%
X159120800Y-78766000D02*
X160970800Y-78766000D01*
X159120800Y-77716000D02*
X159120800Y-78766000D01*
X159140800Y-75706000D02*
X161570800Y-75706000D01*
X159120800Y-75716000D02*
X159120800Y-76716000D01*
%TO.C,R10*%
X158027900Y-86613276D02*
X158027900Y-87122724D01*
X156982900Y-86613276D02*
X156982900Y-87122724D01*
%TO.C,CP18*%
X170325148Y-95416700D02*
X170847652Y-95416700D01*
X170325148Y-96886700D02*
X170847652Y-96886700D01*
%TO.C,Q2*%
X149037000Y-85090600D02*
X150887000Y-85090600D01*
X149037000Y-82040600D02*
X149037000Y-83040600D01*
X149057000Y-82030600D02*
X151487000Y-82030600D01*
X149037000Y-84040600D02*
X149037000Y-85090600D01*
%TO.C,CP15*%
X164085600Y-93096448D02*
X164085600Y-93618952D01*
X165555600Y-93096448D02*
X165555600Y-93618952D01*
%TO.C,CP8*%
X167759748Y-80570400D02*
X168282252Y-80570400D01*
X167759748Y-82040400D02*
X168282252Y-82040400D01*
%TD*%
M02*
